/* XPM */
static char *b626ed30dca8491cee99c28aebe000884ZwdW4KgEFwzsjH2[] = {
/* columns rows colors chars-per-pixel */
"32 32 9 1 ",
"  c #3B180D",
". c #1B1E26",
"X c #48321B",
"o c #64502D",
"O c #78592B",
"+ c #383E42",
"@ c #A5884D",
"# c #E3C06A",
"$ c #886F89",
/* pixels */
"#@@@@o#@@@o#@@@oo#@@@o#@@@o#@@@@",
"#@@@@o#@@@o#@@@oo#@@@o#@@@o#@@@@",
"#@@@@o#@@@o#@@@oo#@@@o#@@@o#@@@@",
"#@@@@o#@@@o#@@@oo#@@@o#@@@o#@@@@",
"#####@####@####@@####@####@#####",
"OOoOOX@OoOX@OOoXX@oOoX@OOOX@OOOO",
"OOoOOX@OoOX@OOoX @oOoX@OOOX@OOOO",
"OOoOoX@OoOX@OOoX @oOoX@OOoX@OoOo",
"oOoOoX@OOoX@oOoX @ooOX@oOoX@OoOo",
"oOoOoX@OOoX@oOoX @OoOX@oOoX@OoOo",
"oOoOOX@oOoX@oOOX @OoOX@oOoX@OOOo",
"oOoOOX@oOoX@oOOX @OoOX@oOOX@OOOo",
"oooooooooooooooX ooooooooooooooX",
"OOOOOOOOOOOOOOO  OOOOOOOOOOOOOOo",
"@@@@@@@@@@@@@@O  @@@@@@@@@@@@@@X",
"@OO$OOO$OOO$OOo  @OOO$OOO$OOO$oX",
"@OO+OOO+OOO+OOo  @OOO+OOO+OOO+oX",
"ooooooooooooooo  ooooooooooooooX",
"XXXXXXXXXXXXXXXX XXXXXXXXXXXXXX ",
"ooooo.@ooo.@oooX @ooo.@ooo.@oooo",
"OOoOOX@oOoX@OoOX @OoOX@oOOX@OOOO",
"OOoOOX@oOoX@OoOX @OoOX@oOOX@OoOo",
"OOoOoX@oOoX@oOoX @OoOX@oOoX@OoOo",
"OOoOoX@oOoX@oOoX @OoOX@oOoX@OoOo",
"OOoOoX@oOOX@oOoX @OOoX@oOoX@OoOo",
"OOoOo.@oOO.@oOOX @OOo.@OOo.@OoOo",
"OOoOOX@oOoX@OoOX @OoOX@oOOX@OOOO",
"OOoOOX@oOoX@OoOX @OoOX@oOOX@OoOo",
"OOoOoX@oOoX@oOoX @OoOX@oOoX@OoOo",
"OOoOoX@oOoX@oOoX @OoOX@oOoX@OoOo",
"OOoOoX@oOOX@oOoX @OOoX@oOoX@OoOo",
"OOoOo.@oOO.@oOOX @OOo.@OOo.@OoOo"
};
