/* XPM */
static char *d1fe567b97174a1ec2740fbbf6722b191ugpDAdU1kj0vP5m[] = {
/* columns rows colors chars-per-pixel */
"32 32 13 1 ",
"  c #3B180D",
". c #1B1E26",
"X c #282C36",
"o c #37313A",
"O c #48321B",
"+ c #64502D",
"@ c #78592B",
"# c #383E42",
"$ c #403645",
"% c #4B3F51",
"& c #A5884D",
"* c #E3C06A",
"= c #886F89",
/* pixels */
"&+*&&&+*&&&+........+*&&&+*&&&+*",
"&+*&&&+*&&&+........+*&&&+*&&&+*",
"&+*&&&+*&&&+........+*&&&+*&&&+*",
"&+*&&&+*&&&+........+*&&&+*&&&+*",
"*&****&****&........&****&****&*",
"@O&@+@O&@@+O........O&+@+O&@@@O&",
"@O&@+@O&@@+O........ &+@+O&@@@O&",
"+O&@+@O&@@+O........ &+@+O&@@+O&",
"+O&@@+O&+@+O........ &++@O&+@+O&",
"+O&@@+O&+@+O........ &@+@O&+@+O&",
"@O&+@+O&+@@O........ &@+@O&+@+O&",
"@O&+@+O&+@@O........ &@+@O&+@@O&",
"+++++++++++OXXXXXXXX +++++++++++",
"@@@@@@@@@@@ XXXXXXXX @@@@@@@@@@@",
"&&&&&&&&&&@ ........ &&&&&&&&&&&",
"@@@=@@@=@@+ ........ &@@@=@@@=@@",
"@@@#@@@#@@+ XXXXXXXX &@@@#@@@#@@",
"+++++++++++ XXXXXXXX +++++++++++",
"OOOOOOOOOOOOoooooooo OOOOOOOOOOO",
"+.&+++.&+++Ooooooooo &+++.&+++.&",
"@O&+@+O&@+@OXXXXXXXX &@+@O&+@@O&",
"@O&+@+O&@+@OXXXXXXXX &@+@O&+@@O&",
"+O&+@+O&+@+O%%%%%%%% &@+@O&+@+O&",
"+O&+@+O&+@+O%%%%%%%% &@+@O&+@+O&",
"+O&+@@O&+@+O$$$$$$$$ &@@+O&+@+O&",
"+.&+@@.&+@@O$$$$$$$$ &@@+.&@@+.&",
"@O&+@+O&@+@O%%%%%%%% &@+@O&+@@O&",
"@O&+@+O&@+@O%%%%%%%% &@+@O&+@@O&",
"+O&+@+O&+@+O%%%%%%%% &@+@O&+@+O&",
"+O&+@+O&+@+O%%%%%%%% &@+@O&+@+O&",
"+O&+@@O&+@+O%%%%%%%% &@@+O&+@+O&",
"+.&+@@.&+@@O%%%%%%%% &@@+.&@@+.&"
};
