/* XPM */
static char *_2c1fe634d07431c8f7db7e167412509E5q4pz8bIuDtTPLa[] = {
/* columns rows colors chars-per-pixel */
"32 32 11 1 ",
"  c #3B180D",
". c #1B1E26",
"X c #282C36",
"o c #37313A",
"O c #48321B",
"+ c #64502D",
"@ c #78592B",
"# c #403645",
"$ c #4B3F51",
"% c #A5884D",
"& c #E3C06A",
/* pixels */
"%%%+........................+&%%",
"%%%+........................+&%%",
"%%%+........................+&%%",
"%%%+........................+&%%",
"&&&%........................%&&&",
"@@+O........................O%+@",
"@@+O........................ %+@",
"@@+O........................ %+@",
"+@+O........................ %++",
"+@+O........................ %@+",
"+@@O........................ %@+",
"+@@O........................ %@+",
"+++O..XXXXXXXXXXXXXXXXXXXX.. +++",
"@@@ ..XXXXXXXXXXXXXXXXXXXX.. @@@",
"%%@ ........................ %%%",
"@@+ ........................ %@@",
"@@+ XXXXXXXXXXXXXXXXXXXXXXXX %@@",
"+++ XXXXXXXXXXXXXXXXXXXXXXXX +++",
"OOOOoooooooooooooooooooooooo OOO",
"+++Ooooooooooooooooooooooooo %++",
"@+@OXXXXXXXXXXXXXXXXXXXXXXXX %@+",
"@+@OXXXXXXXXXXXXXXXXXXXXXXXX %@+",
"+@+O$$$$$$$$$$$$$$$$$$$$$$$$ %@+",
"+@+O$$$$$$$$$$$$$$$$$$$$$$$$ %@+",
"+@+O######################## %@@",
"+@@O######################## %@@",
"@+@O$$$$$$$$$$$$$$$$$$$$$$$$ %@+",
"@+@O$$$$$$$$$$$$$$$$$$$$$$$$ %@+",
"+@+O$$$$$$$$$$$$$$$$$$$$$$$$ %@+",
"+@+O$$$$$$$$$$$$$$$$$$$$$$$$ %@+",
"+@+O$$$$$$$$$$$$$$$$$$$$$$$$ %@@",
"+@@O$$$$$$$$$$$$$$$$$$$$$$$$ %@@"
};
