/* XPM */
static char *d2530441516d4324bf2f32296ac58f4eYwNQ61FASgjFbKQ4[] = {
/* columns rows colors chars-per-pixel */
"32 32 13 1 ",
"  c #3B180D",
". c #1B1E26",
"X c #282C36",
"o c #37313A",
"O c #48321B",
"+ c #64502D",
"@ c #78592B",
"# c #383E42",
"$ c #403645",
"% c #4B3F51",
"& c #A5884D",
"* c #E3C06A",
"= c #886F89",
/* pixels */
"&&+*&&&+................+*&&&+*&",
"&&+*&&&+................+*&&&+*&",
"&&+*&&&+................+*&&&+*&",
"&&+*&&&+................+*&&&+*&",
"**&****&................&****&**",
"+@O&@@+O................O&+@+O&@",
"+@O&@@+O................ &+@+O&@",
"+@O&@@+O................ &+@+O&@",
"@+O&+@+O................ &++@O&+",
"@+O&+@+O................ &@+@O&+",
"@+O&+@@O................ &@+@O&+",
"@+O&+@@O................ &@+@O&+",
"+++++++OXXXXXXXXXXXXXXXX +++++++",
"@@@@@@@ XXXXXXXXXXXXXXXX @@@@@@@",
"&&&&&&@ ................ &&&&&&&",
"@@@=@@+ ................ &@@@=@@",
"@@@#@@+ XXXXXXXXXXXXXXXX &@@@#@@",
"+++++++ XXXXXXXXXXXXXXXX +++++++",
"OOOOOOOOoooooooooooooooo OOOOOOO",
"++.&+++Ooooooooooooooooo &+++.&+",
"@+O&@+@OXXXXXXXXXXXXXXXX &@+@O&+",
"@+O&@+@OXXXXXXXXXXXXXXXX &@+@O&+",
"@+O&+@+O%%%%%%%%%%%%%%%% &@+@O&+",
"@+O&+@+O%%%%%%%%%%%%%%%% &@+@O&+",
"@@O&+@+O$$$$$$$$$$$$$$$$ &@@+O&+",
"@@.&+@@O$$$$$$$$$$$$$$$$ &@@+.&@",
"@+O&@+@O%%%%%%%%%%%%%%%% &@+@O&+",
"@+O&@+@O%%%%%%%%%%%%%%%% &@+@O&+",
"@+O&+@+O%%%%%%%%%%%%%%%% &@+@O&+",
"@+O&+@+O%%%%%%%%%%%%%%%% &@+@O&+",
"@@O&+@+O%%%%%%%%%%%%%%%% &@@+O&+",
"@@.&+@@O%%%%%%%%%%%%%%%% &@@+.&@"
};
