/* XPM */
static char *b58e84eaad214df5dc35b07450a62ef8FHr9ilpgfAJegAne[] = {
/* columns rows colors chars-per-pixel */
"32 32 29 1 ",
"  c black",
". c #2D2420",
"X c #252A2C",
"o c #342A25",
"O c #3C312C",
"+ c #2C3236",
"@ c #2F3438",
"# c #7A2D18",
"$ c #512D23",
"% c #5B3C2C",
"& c #453A35",
"* c #4A413C",
"= c #5A5237",
"- c #60583C",
"; c #645C3F",
": c #363C41",
"> c #383E42",
", c #42494F",
"< c #4F585E",
"1 c #695D58",
"2 c #5E724A",
"3 c #70694F",
"4 c #677755",
"5 c #6A7A5A",
"6 c #70805F",
"7 c #778667",
"8 c #8DAB5F",
"9 c #A2A97F",
"0 c #BEC49F",
/* pixels */
",,,,,,,,,,,,,,,,,,,,,,,,,,,,,,,,",
",,,,,,,,,,,,,,,,,,,,,,,,,,,,,,,,",
",,,,,,,,,,,,,     ,,,,,,,,,,,,,,",
",,,,,,,,,,,, %$$%% ,,,,,,,,,,,,,",
",,,,,,,,,,, %%$$%22 ,,,,,,,,,,,,",
",,,,,,,,>, %2%$%2222 ,>,,,,,,,,,",
",,,,,,,,>, 22%%42222 ,,,,,,,,,,,",
",,,,,,,,>, 24%664422 ,>,,,,,,,,,",
",,,,,,,,>, 46%666642 ,>,,,,,,,,,",
",,,,,,,,,>   6%   62 ,>,,,,,,,,,",
",,,,,,,,>, 086%8066 ,,>,,,>>>>>,",
",,,,,,,,,, 466%6666 ,,>,,,,,,,>>",
",,,,,,,,>, 4666%%62 ,,>><,,,,,>@",
",,,,,,,,>, 296969%O& ,><,,,,,,,>",
",,,,,,,>>,, 29#9#OO&& ,,,,,,,,,>",
",,,,,,>@>,, O2##OO&&& >,,,,,,,,>",
",,,>>>>>@@> $OOOOO&& ,>,,,,>>>>>",
",,,<,,,,>> &7OOOOO&& ,>@,>><,,>@",
",,<,,,,,>< && ooo5&& >@@><<,,>@@",
",,,,,,,,> && , oo&&o @@>>,,,,>@>",
",>,,,,,, &&& , ..77. >>>>>>>>>@>",
",>,,,,,, 77 , ;--;;;= >><,,,,,>>",
",>,,,,,,>  ,, ;-=-;;= ><,,,,,,>>",
">@>>>,,,>,,,, ;-=33325 ,,,,,,,,@",
">>>,,,,,>>,, ;;-  == 5 ,,,,,,,,@",
",>,,,,,>@@>> ** >,  , @@>,,,,,,>",
",,<,,,,>@>< 11* #,,,>>>@@>,,,,>@",
",<,,,,,,+,:+++++++++XXX>>>>>>>@@",
",,,,,,,,>:::::::+:::++>>,,>,,,,,",
",,,,,,,,>,,,,,,,>,,,,,,,,,>,,,,,",
",,,,,,,>>,,,,,,,>,,,,,,,,,>,,,,,",
">,,,,,>@>,,,,,,>@,,,,,,,,,>,,,,,"
};
