/* XPM */
static char *_8586329164d4fbefe17cb7a51ae3c84XylzOz1XeZUyH6FN[] = {
/* columns rows colors chars-per-pixel */
"32 32 25 1 ",
"  c black",
". c #252A2C",
"X c #342A25",
"o c #3C312C",
"O c #2C3236",
"+ c #2F3438",
"@ c #7A2D18",
"# c #512D23",
"$ c #5B3C2C",
"% c #453A35",
"& c #5A5237",
"* c #645C3F",
"= c #363C41",
"- c #383E42",
"; c #42494F",
": c #4F585E",
"> c #5E724A",
", c #70694F",
"< c #677755",
"1 c #6A7A5A",
"2 c #70805F",
"3 c #778667",
"4 c #8DAB5F",
"5 c #A2A97F",
"6 c #BEC49F",
/* pixels */
";;;;;;;;;;;;;;;;;;;;;;;;;;;;;;;;",
";;;;;;;;;;;;;;;;;;;;;;;;;;;;;;;;",
";;;;;;;;;;;;     ;;;;;;;;;;;;;;;",
";;;;;;;;;;; $##$$ ;;;;;;;;;;;;;;",
";;;;;;;;;; $$##$>> ;;;;;;;;;;;;;",
";;;;;;;;- $>$#$>>>> ;;-;;;;;;;;;",
";;;;;;;;- >>$$<>>>> ;;;;;;;;;;;;",
";;;;;;;;- ><$22<<>> ;;-;;;;;;;;;",
";;;;;;;;- <2$2222<> ;;-;;;;;;;;;",
";;;;;;;;;   2$   2> ;;-;;;;;;;;;",
";;;;;;;;- 642$4622 ;;;-;;;-----;",
";;;;;;;;; <22$2222 ;;;-;;;;;;;--",
";;;;;;;;- <222$$2> ;;;--:;;;;;-+",
";;;;;;;;- >52525$o% ;;-:;;;;;;;-",
";;;;;;;--; >5@5@oo%% ;;;;;;;;;;-",
";;;;;;-+-; o>@@ooo%% ;-;;;;;;;;-",
";;;-----++ 3oooooo%% ;-;;;;-----",
";;;:;;;;-- %o@ooo2%% ;-+;--:;;-+",
";;:;;;;;-: %%XXX11%% -++-::;;-++",
";;;;;;;;-: %% XX1X%% ++--;;;;-+-",
";-;;;;;;;; %% XXXX%% ---------+-",
";-;;;;;;;; 33*****33 ;--:;;;;;--",
";-;;;;;;-;;  **&***& ;-:;;;;;;--",
"-+---;;;-;;; ,*,,,& ;;-;;;;;;;;+",
"---;;;;;--;;; &**& ;;;-;;;;;;;;+",
";-;;;;;-++---- 11 ;;;-++-;;;;;;-",
";;:;;;;-+-:;; 331 ;;---++-;;;;-+",
";:;;;;;;-;===OOO..OOO---------++",
";;;;;;;;-;======O===----;;-;;;;;",
";;;;;;;;-;;;;;;;-;;;;;;;;;-;;;;;",
";;;;;;;--;;;;;;;-;;;;;;;;;-;;;;;",
"-;;;;;-+-;;;;;;-+;;;;;;;;;-;;;;;"
};
