/* XPM */
static char *a61cd202a0b44c47c4ba7b2214c74357s6nA2BcWV6ORsu1h[] = {
/* columns rows colors chars-per-pixel */
"32 32 26 1 ",
"  c black",
". c #2D2420",
"X c #252A2C",
"o c #342A25",
"O c #3C312C",
"+ c #2C3236",
"@ c #2F3438",
"# c #7A2D18",
"$ c #512D23",
"% c #5B3C2C",
"& c #453A35",
"* c #5A5237",
"= c #645C3F",
"- c #363C41",
"; c #383E42",
": c #42494F",
"> c #4F585E",
", c #5E724A",
"< c #70694F",
"1 c #677755",
"2 c #6A7A5A",
"3 c #70805F",
"4 c #778667",
"5 c #8DAB5F",
"6 c #A2A97F",
"7 c #BEC49F",
/* pixels */
"::::::::::::::::::::::::::::::::",
"::::::::::::::::::::::::::::::::",
"::::::::::::::::::::::::::::::::",
":::::::::::::     ::::::::::::::",
":::::::::::: %$$%% :::::::::::::",
"::::::::;:: %%$$%,, ::;:::::::::",
"::::::::;: %,%$%,,,, :::::::::::",
"::::::::;: ,,%%1,,,, :;:::::::::",
"::::::::;: ,1%3311,, :;:::::::::",
":::::::::; 13%33331, :;:::::::::",
"::::::::;:   3%   3, :;:::;;;;;:",
":::::::::: 753%5733 ::;:::::::;;",
"::::::::;: 133%3333  :;;>:::::;@",
"::::::::;: 1333%%3,O& ;>:::::::;",
":::::::;;: ,63636%O&& :::::::::;",
"::::::;@;:: ,6#6#OO&& ;::::::::;",
":::;;;;;@@; $,##OOO&& ;::::;;;;;",
":::>::::;;> $OOOOOO&& ;@:;;>::;@",
"::>:::::;> &4 ooo2&& ;@@;>>::;@@",
"::::::::;> &&  oo2&& @@;;::::;@;",
":;:::::::: &&  ...&& ;;;;;;;;;@;",
":;:::::::: && ====&&* ;;>:::::;;",
":;::::::;: 44 ==*=44* ;>::::::;;",
";@;;;:::;::   <=<<<* :;::::::::@",
";;;:::::;;:::: #==* ::;::::::::@",
":;:::::;@@;;;;; 22 ::;@@;::::::;",
"::>::::;@;>::: 442 :;;;@@;::::;@",
":>::::::;>----++XXX+++;;;;;;;;@@",
"::::::::;::-----+---+;;;::;:::::",
"::::::::;:::::::;:::::::::;:::::",
":::::::;;:::::::;:::::::::;:::::",
";:::::;@;::::::;@:::::::::;:::::"
};
