/* XPM */
static char *edeaf8a1046f452ab151390b13f10cc2jzeT8FCXcQWjHl4H[] = {
/* columns rows colors chars-per-pixel */
"32 33 85 1 ",
"  c None",
". c black",
"X c gray5",
"o c gray11",
"O c #261C1C",
"+ c #222222",
"@ c gray15",
"# c gray18",
"$ c #342E2E",
"% c #373232",
"& c #3A3535",
"* c #3F3A3A",
"= c #423838",
"- c #423D3D",
"; c #444040",
": c #464242",
"> c #514949",
", c #524B4B",
"< c #544D4D",
"1 c #5D5353",
"2 c #5B5454",
"3 c #696161",
"4 c #6B6060",
"5 c #6E6363",
"6 c #6F6464",
"7 c #716767",
"8 c #756B6B",
"9 c #766D6D",
"0 c #786F6F",
"q c #7A6E6E",
"w c #7B7272",
"e c #7C7070",
"r c #827575",
"t c #837979",
"y c #857B7B",
"u c #8A7F7F",
"i c #918585",
"p c #948888",
"a c #958989",
"s c #978A8A",
"d c #9F9191",
"f c #9F9292",
"g c #A09393",
"h c #A39494",
"j c #A89B9B",
"k c #AA9C9C",
"l c #AB9C9C",
"z c #B5A6A6",
"x c #B6A6A6",
"c c #B7A7A7",
"v c #B7A8A8",
"b c #B8A9A9",
"n c #BAAAAA",
"m c #BDAEAE",
"M c #BFAFAF",
"N c #C4B3B3",
"B c #C5B5B5",
"V c #C6B5B5",
"C c #C7B6B6",
"Z c #C7B7B7",
"A c #C9B7B7",
"S c #C7B8B8",
"D c #C9B9B9",
"F c #CAB9B9",
"G c #CBBABA",
"H c #CDBDBD",
"J c #D0BFBF",
"K c #D3C1C1",
"L c #D4C4C4",
"P c #D6C5C5",
"I c #D9C7C7",
"U c #DAC7C7",
"Y c #DBC9C9",
"T c #DCCACA",
"R c #DDCACA",
"E c #DDCBCB",
"W c #DECBCB",
"Q c #DECCCC",
"! c #DFCDCD",
"~ c #E0CECE",
"^ c #E3D0D0",
"/ c #E4D1D1",
"( c #E5D2D2",
") c #E6D3D3",
"_ c #E8D5D5",
/* pixels */
"................................",
"................................",
"................................",
"................................",
"................................",
"................................",
"...........%gG!))YVio...........",
"..........7E________K>..........",
".........;!__b6&;eG__JX.........",
".........f__z.....XG__9.........",
".........v__8......s__s.........",
".........k__8......s__y.........",
".........7__z.....XG_~=.........",
"..........k__b5%-wS_)u..........",
"...........rV_____)m3...........",
"..........XfP______Hu...........",
".........+N__z3@$qV__k..........",
".........j__h......m__t.........",
".........E_!o......>__V.........",
"........*__A........E_I.........",
"........&__V........!_I.........",
".........~_!o......<__G.........",
".........m__h......m__g.........",
".........1^__v3@$qV__I#.........",
"..........qE________P2..........",
"...........*gG!))EVsO...........",
"................................",
"................................",
"................................",
"................................",
"................................",
"................................",
"                                "
};
