/* XPM */
static char *_3ff212799514800aac6f5d39e6dcb84lD0RSPibDIEjKFuD[] = {
/* columns rows colors chars-per-pixel */
"32 33 53 1 ",
"  c None",
". c black",
"X c gray5",
"o c #221616",
"O c #261C1C",
"+ c #222222",
"@ c gray15",
"# c #342E2E",
"$ c #3D3838",
"% c #3F3A3A",
"& c #4B4242",
"* c #4D4545",
"= c #514949",
"- c #524B4B",
"; c #696161",
": c #776B6B",
"> c #786D6D",
", c #807575",
"< c #877B7B",
"1 c #8B7F7F",
"2 c #8C8080",
"3 c #8D8080",
"4 c #8D8282",
"5 c #958888",
"6 c #A09393",
"7 c #A49797",
"8 c #B1A3A3",
"9 c #B4A5A5",
"0 c #B6A7A7",
"q c #B7A8A8",
"w c #B9ABAB",
"e c #BBABAB",
"r c #BEAEAE",
"t c #C0AFAF",
"y c #C1B0B0",
"u c #C1B1B1",
"i c #CBBABA",
"p c #CDBCBC",
"a c #D2C1C1",
"s c #D4C2C2",
"d c #D6C4C4",
"f c #D6C5C5",
"g c #D7C5C5",
"h c #D8C6C6",
"j c #D9C7C7",
"k c #DAC7C7",
"l c #DECCCC",
"z c #DFCDCD",
"x c #E2CFCF",
"c c #E4D1D1",
"v c #E7D3D3",
"b c #E6D4D4",
"n c #E8D5D5",
/* pixels */
"................................",
"................................",
"................................",
"................................",
"................................",
"................................",
"..........vnnnnnnnnnj...........",
"..........vnnnnnnnnnj...........",
"..........vn8...................",
"..........vn8...................",
"..........vn8...................",
"..........vn8...................",
"..........vnjjvvjt<X............",
"..........vnnnnnnnnp-...........",
"..........a7:-+*2annd$..........",
".................Ounn8..........",
"..................#znv+.........",
"...................qnn:.........",
"...................6nn2.........",
"...................6nn2.........",
"...................0nn>.........",
"..................#znv@.........",
".................ounn0..........",
".........ie1;&o&2annd$..........",
".........jnnnnnnnnni-...........",
".........-5rszbxde,.............",
"................................",
"................................",
"................................",
"................................",
"................................",
"................................",
"                                "
};
