/* XPM */
static char *_9dae56b8e894821c7ef34a1e62dd04ae6fyHkZXYY5kAC2I[] = {
/* columns rows colors chars-per-pixel */
"32 33 40 1 ",
"  c None",
". c black",
"X c #222222",
"o c gray18",
"O c #312B2B",
"+ c #3A3535",
"@ c #3D3838",
"# c #464242",
"$ c #6C6262",
"% c #746A6A",
"& c #766D6D",
"* c #7B7272",
"= c #7C7070",
"- c #7F7474",
"; c #877B7B",
": c #8C8080",
"> c #9D9191",
", c #A19494",
"< c #A89B9B",
"1 c #AC9D9D",
"2 c #AFA0A0",
"3 c #B1A3A3",
"4 c #B3A4A4",
"5 c #B6A6A6",
"6 c #B6A7A7",
"7 c #BDACAC",
"8 c #BDAEAE",
"9 c #D4C1C1",
"0 c #D5C3C3",
"q c #D6C5C5",
"w c #D8C7C7",
"e c #D9C7C7",
"r c #DBC9C9",
"t c #DCCACA",
"y c #DECCCC",
"u c #E6D3D3",
"i c #E7D3D3",
"p c #E6D4D4",
"a c #E7D4D4",
"s c #E8D5D5",
/* pixels */
"................................",
"................................",
"................................",
"................................",
"................................",
"................................",
"................<sss:...........",
"...............$isss:...........",
"..............X0sess:...........",
"..............2s0,ss:...........",
".............&ia$>ss:...........",
"............Oes1.>ss:...........",
"............5sqX.>ss:...........",
"...........-sa%..>ss:...........",
"..........@rs3...>ss:...........",
"..........7seo...>ss:...........",
".........;ss*....>ss:...........",
"........#ys5.....>ss:...........",
"........4st+.....>ss:...........",
"........7ssssssssssssss=........",
"........7ssssssssssssss=........",
".................>ss:...........",
".................>ss:...........",
".................>ss:...........",
".................>ss:...........",
".................>ss:...........",
"................................",
"................................",
"................................",
"................................",
"................................",
"................................",
"                                "
};
