/* XPM */
static char *_7d78a15ba384b34fa41ce324971f5bahbiycVPmnsIAQ0Tm[] = {
/* columns rows colors chars-per-pixel */
"32 33 83 1 ",
"  c None",
". c black",
"X c #161616",
"o c gray11",
"O c #261C1C",
"+ c #222222",
"@ c gray15",
"# c #312B2B",
"$ c #373232",
"% c #3F3A3A",
"& c #423D3D",
"* c #4B4242",
"= c #4D4545",
"- c #524B4B",
"; c #544D4D",
": c #595252",
"> c #5D5353",
", c #5B5454",
"< c #5E5454",
"1 c #615858",
"2 c #635A5A",
"3 c #675E5E",
"4 c #726969",
"5 c #746A6A",
"6 c #786D6D",
"7 c #847777",
"8 c #837979",
"9 c #857B7B",
"0 c #877A7A",
"q c #8C7E7E",
"w c #8D8080",
"e c #978A8A",
"r c #9B8D8D",
"t c #9C8E8E",
"y c #9D9090",
"u c #9D9191",
"i c #A09393",
"p c #A39595",
"a c #A39797",
"s c #A89A9A",
"d c #A89B9B",
"f c #AA9A9A",
"g c #AA9D9D",
"h c #AC9D9D",
"j c #B0A1A1",
"k c #B1A1A1",
"l c #B4A4A4",
"z c #B7A7A7",
"x c #BCACAC",
"c c #BDACAC",
"v c #BDAEAE",
"b c #BFAFAF",
"n c #C2B3B3",
"m c #C4B4B4",
"M c #CAB9B9",
"N c #CBBABA",
"B c #CCBBBB",
"V c #CDBDBD",
"C c #CEBDBD",
"Z c #D0BFBF",
"A c #D2C2C2",
"S c #D4C1C1",
"D c #D4C4C4",
"F c #D6C5C5",
"G c #D8C6C6",
"H c #DBC9C9",
"J c #DCCACA",
"K c #DDCACA",
"L c #DDCBCB",
"P c #DECBCB",
"I c #DECCCC",
"U c #DFCDCD",
"Y c #E0CECE",
"T c #E1CFCF",
"R c #E2CFCF",
"E c #E3D0D0",
"W c #E4D1D1",
"Q c #E5D2D2",
"! c #E6D3D3",
"~ c #E7D3D3",
"^ c #E6D4D4",
"/ c #E7D4D4",
"( c #E8D5D5",
/* pixels */
"................................",
"................................",
"................................",
"................................",
"................................",
"................................",
"...........@tMUWUBtO............",
"..........2G(((((((D;...........",
".........*J((k2+-aW(D#..........",
".........z((i.....0((g..........",
"........oT(HX......M(T+.........",
"........2((v.......d((0.........",
"........5((z.......u((h.........",
"........2((v.......d((m.........",
"........+W(HX......M((V.........",
".........v((u.....7(((D.........",
".........>T(^k<O;aWW^(A.........",
"..........6U((((((WeW(M.........",
"...........&dZTWJv3-((v.........",
"...................q((r.........",
"...................v(W;.........",
"..................2W(n..........",
".................%S(E,..........",
"..........Vd4=+:tJ(^w...........",
"..........T(((((((J8............",
"..........2dVJWJBi$.............",
"................................",
"................................",
"................................",
"................................",
"................................",
"................................",
"                                "
};
