/* XPM */
static char *ed906c30b1d648038b703df57030ed93uR8SLH0EMALNVNnn[] = {
/* columns rows colors chars-per-pixel */
"32 33 18 1 ",
"  c None",
". c black",
"X c #221616",
"o c #4B4242",
"O c #544D4D",
"+ c #786B6B",
"@ c #827878",
"# c #867A7A",
"$ c #A79999",
"% c #A99B9B",
"& c #AD9E9E",
"* c #C3B2B2",
"= c #C4B5B5",
"- c #C6B6B6",
"; c #D2C2C2",
": c #DBC9C9",
"> c #DCCBCB",
", c #E4D2D2",
/* pixels */
"................................",
"................................",
"................................",
"................................",
"................................",
"................................",
"..........o@$*:,,=..............",
"..........>,,,,,,=..............",
"..........;=%#O,,=..............",
"..............X,,=..............",
"..............X,,=..............",
"..............X,,=..............",
"..............X,,=..............",
"..............X,,=..............",
"..............X,,=..............",
"..............X,,=..............",
"..............X,,=..............",
"..............X,,=..............",
"..............X,,=..............",
"..............X,,=..............",
"..............X,,=..............",
"..............X,,=..............",
"..............X,,=..............",
"..............X,,=..............",
"..........&,,,,,,,,,,,+.........",
"..........&,,,,,,,,,,,+.........",
"................................",
"................................",
"................................",
"................................",
"................................",
"................................",
"                                "
};
