/* XPM */
static char *e9e7e7b47485433adc7a54a8eb3f05f8jCLdJDYlLyiJRzLU[] = {
/* columns rows colors chars-per-pixel */
"32 33 49 1 ",
"  c None",
". c black",
"X c gray5",
"o c #161616",
"O c gray11",
"+ c #261C1C",
"@ c #2A2A2A",
"# c gray18",
"$ c #373232",
"% c #3F3A3A",
"& c #524B4B",
"* c #544D4D",
"= c #5E5454",
"- c #615858",
"; c #696161",
": c #6F6767",
"> c #726969",
", c #7F7474",
"< c #847777",
"1 c #857B7B",
"2 c #8C7E7E",
"3 c #918585",
"4 c #948686",
"5 c #988C8C",
"6 c #9D9191",
"7 c #AA9A9A",
"8 c #AB9C9C",
"9 c #AE9F9F",
"0 c #B0A1A1",
"q c #B4A5A5",
"w c #B6A7A7",
"e c #B9ABAB",
"r c #C0B1B1",
"t c #C4B3B3",
"y c #C7B6B6",
"u c #C9B7B7",
"i c #CCBCBC",
"p c #D0BFBF",
"a c #D4C2C2",
"s c #DAC7C7",
"d c #DBC9C9",
"f c #DDCBCB",
"g c #DECCCC",
"h c #E1CFCF",
"j c #E2CFCF",
"k c #E3D0D0",
"l c #E5D2D2",
"z c #E7D4D4",
"x c #E8D5D5",
/* pixels */
"................................",
"................................",
"................................",
"................................",
"................................",
"................................",
".........yxxxxxxxxxxxx6.........",
".........yxxxxxxxxxxxx<.........",
"..................&zxdo.........",
"..................7xx8..........",
".................Xsxz*..........",
".................,xxu...........",
".................rxx2...........",
"................%lxg+...........",
"................6xx0............",
"................axx-............",
"...............:xxi.............",
"...............qxx3.............",
"..............#jxj@.............",
"..............4xxq..............",
"..............ixx;..............",
".............=xxp...............",
".............9xx5...............",
"............Ofxk$...............",
"............1xxe................",
"............txx>................",
"................................",
"................................",
"................................",
"................................",
"................................",
"................................",
"                                "
};
