/* XPM */
static char *_ae0c7d67af64bcbbdedf80ccb434b329iBhyGS9WKky87mo[] = {
/* columns rows colors chars-per-pixel */
"32 33 82 1 ",
"  c None",
". c black",
"X c gray5",
"o c #161616",
"O c gray11",
"+ c #221616",
"@ c #261C1C",
"# c #222222",
"$ c gray15",
"% c gray18",
"& c #312B2B",
"* c #423838",
"= c #423D3D",
"- c #444040",
"; c #464242",
": c #4B4242",
"> c #494444",
", c #4F4747",
"< c #544D4D",
"1 c #564F4F",
"2 c #5D5353",
"3 c #615858",
"4 c #675E5E",
"5 c #6C6262",
"6 c #6E6363",
"7 c #756B6B",
"8 c #766D6D",
"9 c #7D7272",
"0 c #837979",
"q c #847A7A",
"w c #887C7C",
"e c #8D8080",
"r c #8F8484",
"t c #938686",
"y c #948686",
"u c #998C8C",
"i c #9D9090",
"p c #9F9191",
"a c #A09393",
"s c #A19494",
"d c #A89A9A",
"f c #AA9A9A",
"g c #AA9C9C",
"h c #AA9D9D",
"j c #B1A1A1",
"k c #B0A2A2",
"l c #B6A6A6",
"z c #BAAAAA",
"x c #BCADAD",
"c c #C0AFAF",
"v c #C0B1B1",
"b c #C2B4B4",
"n c #C5B5B5",
"m c #C9B7B7",
"M c #C8B8B8",
"N c #C9B9B9",
"B c #CAB9B9",
"V c #CBBABA",
"C c #CEBDBD",
"Z c #D0BFBF",
"A c #D2C1C1",
"S c #D4C1C1",
"D c #D4C2C2",
"F c #D4C3C3",
"G c #D5C4C4",
"H c #D6C4C4",
"J c #DAC7C7",
"K c #DBC9C9",
"L c #DDCACA",
"P c #DDCBCB",
"I c #DECBCB",
"U c #DECCCC",
"Y c #DFCDCD",
"T c #E1CFCF",
"R c #E2CFCF",
"E c #E2D0D0",
"W c #E3D0D0",
"Q c #E4D1D1",
"! c #E5D2D2",
"~ c #E6D3D3",
"^ c #E6D4D4",
"/ c #E8D5D5",
/* pixels */
"................................",
"................................",
"................................",
"................................",
"................................",
"................................",
".............1fZU!JNp:..........",
"............p!///////N..........",
"...........h//Sr,@=9lx..........",
"..........0//cO.................",
".........oJ/K&..................",
".........w//a...................",
".........z//1...................",
".........H/U.9bU!UNu#...........",
".........W/Zk///////S1..........",
"........+//!/Py;$6c//H%.........",
"........@///W2.....z//s.........",
".........!//k......>^/Z.........",
".........P//q.......S/!.........",
".........N//7.......N//#........",
".........h//q.......S/!.........",
".........4//k......>^/C.........",
"..........m/W2.....z//u.........",
"..........3R/Pt=#6v//C+.........",
"...........8P///////N;..........",
"............*fAR!PneX...........",
"................................",
"................................",
"................................",
"................................",
"................................",
"................................",
"                                "
};
