/* XPM */
static char *f4adf148718c4bbb997e3dcfb0356b91A2r2v0bb3I6GycB1[] = {
/* columns rows colors chars-per-pixel */
"32 33 78 1 ",
"  c None",
". c black",
"X c #161616",
"o c gray11",
"O c #221616",
"+ c gray15",
"@ c gray18",
"# c #373232",
"$ c #3A3535",
"% c #3F3A3A",
"& c #423838",
"* c #4B4242",
"= c #514949",
"- c #544D4D",
"; c #575151",
": c #5E5454",
"> c #605656",
", c #615B5B",
"< c #635A5A",
"1 c #645B5B",
"2 c #665D5D",
"3 c #686060",
"4 c #696161",
"5 c #6E6363",
"6 c #716767",
"7 c #726969",
"8 c #776B6B",
"9 c #786F6F",
"0 c #7C7070",
"q c #847777",
"w c #847A7A",
"e c #887C7C",
"r c #908484",
"t c #918484",
"y c #918585",
"u c #948888",
"i c #998C8C",
"p c #9B8D8D",
"a c #9D8F8F",
"s c #9D9090",
"d c #9F9292",
"f c #A19393",
"g c #A39494",
"h c #A49797",
"j c #A69898",
"k c #AA9C9C",
"l c #AC9D9D",
"z c #AE9F9F",
"x c #AFA0A0",
"c c #B1A3A3",
"v c #B7A8A8",
"b c #BCADAD",
"n c #C3B2B2",
"m c #C5B5B5",
"M c #C9B7B7",
"N c #CAB9B9",
"B c #CCBCBC",
"V c #D0BFBF",
"C c #D2C2C2",
"Z c #D5C4C4",
"A c #D9C7C7",
"S c #DAC7C7",
"D c #DAC8C8",
"F c #DBC9C9",
"G c #DCCACA",
"H c #DECBCB",
"J c #DECCCC",
"K c #DFCDCD",
"L c #E0CDCD",
"P c #E0CECE",
"I c #E1CECE",
"U c #E1CFCF",
"Y c #E2CFCF",
"T c #E4D1D1",
"R c #E5D2D2",
"E c #E6D3D3",
"W c #E6D4D4",
"Q c #E8D5D5",
/* pixels */
"................................",
"................................",
"................................",
"................................",
"................................",
"................................",
".........X5gmZPWPVx>............",
".........0QQQQQQQQQEh...........",
".........9Vkq1%#1jKQQi..........",
"..................,EQS..........",
"...................NQQ$.........",
"...................MQEo.........",
"..................-EQm..........",
"...............@:aGQD;..........",
"............rQQQQQGl&...........",
"............rQQQQQEn4...........",
"...............+,fPQEw..........",
"..................;KQP%.........",
"...................dQQi.........",
"...................7QQc.........",
"...................8QQl.........",
"...................jQQr.........",
"..................2PQP%.........",
".........Bve4*O$6lEQQu..........",
".........SQQQQQQQQQPr...........",
".........=ubCGEEDmd&............",
"................................",
"................................",
"................................",
"................................",
"................................",
"................................",
"                                "
};
