/* XPM */
static char *cea870a61b4b4c7baa0bdaa57b1b82dcMaR5bj6cyRmJwmTP[] = {
/* columns rows colors chars-per-pixel */
"32 33 55 1 ",
"  c None",
". c black",
"X c #161616",
"o c #221616",
"O c gray15",
"+ c gray18",
"@ c #3A3535",
"# c #3F3A3A",
"$ c #423D3D",
"% c #444040",
"& c #464242",
"* c #544D4D",
"= c #696161",
"- c #6B6060",
"; c #766D6D",
": c #847777",
"> c #8A7F7F",
", c #8D8080",
"< c #918585",
"1 c #A19393",
"2 c #A39797",
"3 c #A69898",
"4 c #A89B9B",
"5 c #AA9A9A",
"6 c #AA9C9C",
"7 c #AB9E9E",
"8 c #AEA0A0",
"9 c #B0A2A2",
"0 c #B3A5A5",
"q c #B4A5A5",
"w c #B8A9A9",
"e c #BAAAAA",
"r c #BCADAD",
"t c #C2B3B3",
"y c #C4B4B4",
"u c #C6B5B5",
"i c #CDBDBD",
"p c #CEBDBD",
"a c #D0BFBF",
"s c #D3C1C1",
"d c #D2C2C2",
"f c #D4C2C2",
"g c #D4C3C3",
"h c #D5C3C3",
"j c #D4C4C4",
"k c #D5C4C4",
"l c #D7C5C5",
"z c #D9C7C7",
"x c #DBC9C9",
"c c #DCCACA",
"v c #DECCCC",
"b c #E4D1D1",
"n c #E6D3D3",
"m c #E7D4D4",
"M c #E8D5D5",
/* pixels */
"................................",
"................................",
"................................",
"................................",
"................................",
"................................",
".........&>0pzbbxt,X............",
".........gMMMMMMMMMa*...........",
".........gMg1-@+;yMMk+..........",
".........r:.......wMM2..........",
"..................&mMp..........",
"...................vMx..........",
"..................ObMk..........",
"..................<MMw..........",
".................@cMm-..........",
"................XyMM9...........",
"................qMMpo...........",
"...............8MMs#............",
"..............7MMg$.............",
".............7MMk&..............",
"............5MMk&...............",
"...........5MMg&................",
"..........3MMg&.................",
".........2MMs$..................",
".........bMMMMMMMMMMMMo.........",
".........bMMMMMMMMMMMMo.........",
"................................",
"................................",
"................................",
"................................",
"................................",
"................................",
"                                "
};
