/* XPM */
static char *e4859f8a9860435ff73dcbe55a4877d5WMIoiUJlRcDY4U9L[] = {
/* columns rows colors chars-per-pixel */
"32 32 45 1 ",
"  c black",
". c #222222",
"X c gray15",
"o c #3D3737",
"O c #403A3A",
"+ c #464646",
"@ c #494949",
"# c gray30",
"$ c #545151",
"% c #585454",
"& c #615E5E",
"* c #636060",
"= c #676464",
"- c #7C7777",
"; c #847F7F",
": c #898282",
"> c #8A8484",
", c #8E8A8A",
"< c #908C8C",
"1 c #969090",
"2 c #9D9898",
"3 c #A29B9B",
"4 c #A19C9C",
"5 c #A8A2A2",
"6 c #B2ABAB",
"7 c #B3ACAC",
"8 c #B5AFAF",
"9 c #BFB8B8",
"0 c #C0BABA",
"q c #C8C2C2",
"w c #CAC4C4",
"e c #CDC6C6",
"r c #CFC8C8",
"t c #D0C9C9",
"y c #DBD4D4",
"u c #DFD8D8",
"i c #E1D9D9",
"p c #E2DCDC",
"a c #E5DFDF",
"s c #E7E0E0",
"d c #E8E1E1",
"f c #EFE7E7",
"g c #EFE8E8",
"h c #F2EAEA",
"j c #F6EEEE",
/* pixels */
"                                ",
"                                ",
"                                ",
"                                ",
"                                ",
"                                ",
"            =9ahhi8+            ",
"           2hjjjjjjf-           ",
"          :jja,O@4gjf&          ",
"         .ajf%    ;jje          ",
"         <jj6      tjj%         ",
"         qjj&      1jj5         ",
"         ajf       $jjq         ",
"        Xjjy        hju         ",
"        #jjr        sjd         ",
"        *jjw        pjf         ",
"        *jjw        pjf         ",
"        #jjr        sjd         ",
"        Xjjy        hju         ",
"         ajf       $jjq         ",
"         qjj&      1jj5         ",
"         <jj7      tjj%         ",
"         .ajf%    ;jje          ",
"          >jja,o+3gjf&          ",
"           2hjjjjjjf-           ",
"            =0ahgi8+            ",
"                                ",
"                                ",
"                                ",
"                                ",
"                                ",
"                                "
};
