/* XPM */
static char *_4803c306e184cceac4140844f6c5bd8A6yIkbC0BuA5HnUz[] = {
/* columns rows colors chars-per-pixel */
"32 32 29 1 ",
"  c black",
". c #2D2420",
"X c #252A2C",
"o c #342A25",
"O c #3C312C",
"+ c #2C3236",
"@ c #2F3438",
"# c #7A2D18",
"$ c #512D23",
"% c #5B3C2C",
"& c #453A35",
"* c #4A413C",
"= c #5A5237",
"- c #60583C",
"; c #645C3F",
": c #363C41",
"> c #383E42",
", c #42494F",
"< c #4F585E",
"1 c #695D58",
"2 c #5E724A",
"3 c #70694F",
"4 c #677755",
"5 c #6A7A5A",
"6 c #70805F",
"7 c #778667",
"8 c #8DAB5F",
"9 c #A2A97F",
"0 c #BEC49F",
/* pixels */
",,,,,,,,,,,,,,,,,,,,,,,,,,,,,,,,",
",,,,,,,,,,,,,,,,,,,,,,,,,,,,,,,,",
",,,,,,,,,,,,,,,,,,,,,,,,,,,,,,,,",
",,,,,,,,,,,,,,,     ,,,,,,,,,,,,",
",,,,,,,,,,,,,, 2%$$$ ,,,,,,,,,,,",
",,,,,,,,>,,,, $%%$$%2 >,,,,,,,,,",
",,,,,,,,>,,, $$%2%$%22 ,,,,,,,,,",
",,,,,,,,>,,, $%22%%422 ,,,,,,,,,",
",,,,,,,,>,,, %2446%642 ,,,,,,,,,",
",,,,,,,,,>>> 24666%664 ,,,,,,,,,",
",,,,,,,,>,,, 26   6%   ,,,>>>>>,",
",,,,,,,,,,,,, 66086%80 ,,,,,,,>>",
",,,,,,,,>,,,, 66666%64 ><,,,,,>@",
",,,,,,,,>,,,  266666%4 <,,,,,,,>",
",,,,,,,>>,, &OO296969% ,,,,,,,,>",
",,,,,,>@>, $$OOO29#9# >,,,,,,,,>",
",,,>>>>>@@ 7$&OOO2## ,>,,,,>>>>>",
",,,<,,,,>>< 7&OOOOO& ,>@,>><,,>@",
",,<,,,,,><, &&OOO6O&& @@><<,,>@@",
",,,,,,,,><, &&oo5o && @>>,,,,>@>",
",>,,,,,,,,, o&&.. , && >>>>>>>@>",
",>,,,,,,,  ;;77--;  &&& <,,,,,>>",
",>,,,,,, **;;;-=-; < 77 ,,,,,,>>",
">@>>>,,, 1 =333=-; ,,  ,,,,,,,,@",
">>>,,,,,> ,     -;; ,,>,,,,,,,,@",
",>,,,,,>@@>>>>>> 56 ,>@@>,,,,,,>",
",,<,,,,>@><,,,,# 577 >>@@>,,,,>@",
",<,,,,,,X:+:::::XXXXX+++>>>>>>@@",
",,,,,,,,>:::::::+:::+++>,,>,,,,,",
",,,,,,,,>,,,,,,,>,,,,,,,,,>,,,,,",
",,,,,,,>>,,,,,,,>,,,,,,,,,>,,,,,",
">,,,,,>@>,,,,,,>@,,,,,,,,,>,,,,,"
};
