/* XPM */
static char *_72d1a7025184c72be438a9bfd9caf237D5oiyOBrBJ3SK3G[] = {
/* columns rows colors chars-per-pixel */
"32 32 27 1 ",
"  c black",
". c #252A2C",
"X c #342A25",
"o c #3C312C",
"O c #2C3236",
"+ c #2F3438",
"@ c #7A2D18",
"# c #512D23",
"$ c #5B3C2C",
"% c #453A35",
"& c #4A413C",
"* c #5A5237",
"= c #645C3F",
"- c #363C41",
"; c #383E42",
": c #42494F",
"> c #4F585E",
", c #695D58",
"< c #5E724A",
"1 c #70694F",
"2 c #677755",
"3 c #6A7A5A",
"4 c #70805F",
"5 c #778667",
"6 c #8DAB5F",
"7 c #A2A97F",
"8 c #BEC49F",
/* pixels */
"::::::::::::::::::::::::::::::::",
"::::::::::::::::::::::::::::::::",
"::::::::::::::::::::::::::::::::",
"::::::::::::::     :::::::::::::",
"::::::::::::: <$### ::::::::::::",
"::::::::;::: #$$##$< :;:::::::::",
"::::::::;:: ##$<$#$<< ::::::::::",
"::::::::;:: #$<<$$2<< ;:::::::::",
"::::::::;:: $<224$42< ;:::::::::",
":::::::::;; <2444$442 ;:::::::::",
"::::::::;:: <4   4$   ;:::;;;;;:",
":::::::::::: 44864$68 ;:::::::;;",
"::::::::;::: 44444$42 ;;>:::::;+",
"::::::::;::: <44444$2 ;>:::::::;",
":::::::;;:: %o<74747$ :::::::::;",
"::::::;+;: #%oo<7@7@ :;::::::::;",
":::;;;;;++ ##ooo<@@o :;::::;;;;;",
":::>::::;; 5#oooooo% :;+:;;>::;+",
"::>:::::;> %5oooo@o% ;++;>>::;++",
"::::::::;> %%XXX33%% ++;;::::;+;",
":;:::::::: %%XXX3 %% ;;;;;;;;;+;",
":;:::::::: %%XXXX %% :;;>:::::;;",
":;::::::;: 55=====55 :;>::::::;;",
";+;;;:::;: *===*==  ::;::::::::+",
";;;:::::;;: *111=1 :::;::::::::+",
":;:::::;++;; *==* :::;++;::::::;",
"::>::::;+;>:: && :::;;;++;::::;+",
":>::::::;>::: &,, ;;;;;;;;;;;;++",
"::::::::;:---OOO.O--OO;;::;:::::",
"::::::::;::-----O----:::::;:::::",
":::::::;;:::::::;:::::::::;:::::",
";:::::;+;::::::;+:::::::::;:::::"
};
