/* XPM */
static char *d7e63dd8ad7041e18bcebc9026123846cSIyrl2JZ3tl5VZd[] = {
/* columns rows colors chars-per-pixel */
"32 32 28 1 ",
"  c black",
". c #2D2420",
"X c #252A2C",
"o c #342A25",
"O c #3C312C",
"+ c #2C3236",
"@ c #2F3438",
"# c #7A2D18",
"$ c #512D23",
"% c #5B3C2C",
"& c #453A35",
"* c #4A413C",
"= c #5A5237",
"- c #645C3F",
"; c #363C41",
": c #383E42",
"> c #42494F",
", c #4F585E",
"< c #695D58",
"1 c #5E724A",
"2 c #70694F",
"3 c #677755",
"4 c #6A7A5A",
"5 c #70805F",
"6 c #778667",
"7 c #8DAB5F",
"8 c #A2A97F",
"9 c #BEC49F",
/* pixels */
">>>>>>>>>>>>>>>>>>>>>>>>>>>>>>>>",
">>>>>>>>>>>>>>>>>>>>>>>>>>>>>>>>",
">>>>>>>>>>>>>>>>>>>>>>>>>>>>>>>>",
">>>>>>>>>>>>>>>>>>>>>>>>>>>>>>>>",
">>>>>>>>>>>>>>     >>>>>>>>>>>>>",
">>>>>>>>:>>>> 1%$$$ >>:>>>>>>>>>",
">>>>>>>>:>>> $%%$$%1 >>>>>>>>>>>",
">>>>>>>>:>> $$%1%$%11 :>>>>>>>>>",
">>>>>>>>:>> $%11%%311 :>>>>>>>>>",
">>>>>>>>>:: %1335%531 :>>>>>>>>>",
">>>>>>>>:>> 13555%553 :>>>:::::>",
">>>>>>>>>>> 15   5%   :>>>>>>>::",
">>>>>>>>:>>> 55975%79 ::,>>>>>:@",
">>>>>>>>:>>  55555%53 :,>>>>>>>:",
">>>>>>>::> &O155555%3 >>>>>>>>>:",
">>>>>>:@:> &&O185858% :>>>>>>>>:",
">>>:::::@@ $&OO18#8# >:>>>>:::::",
">>>,>>>>:: $$OOO1##& >:@>::,>>:@",
">>,>>>>>:, 6$OOOO5O& :@@:,,>>:@@",
">>>>>>>>:,> 6&oo44 && @::>>>>:@:",
">:>>>>>>>>> &&oo4  && ::::::::@:",
">:>>>>>>>>> &&...  && ::,>>>>>::",
">:>>>>>>:> =&&---- && :,>>>>>>::",
":@:::>>>:> =66-=-- 66 :>>>>>>>>@",
":::>>>>>::> =222-2   >:>>>>>>>>@",
">:>>>>>:@@:: =--# >>>:@@:>>>>>>:",
">>,>>>>:@:,>> ** >>>:::@@:>>>>:@",
">,>>>>>>:,>>> *<< ::::::::::::@@",
">>>>>>>>:>;;;+++X+;;++::>>:>>>>>",
">>>>>>>>:>>;;;;;+;;;;>>>>>:>>>>>",
">>>>>>>::>>>>>>>:>>>>>>>>>:>>>>>",
":>>>>>:@:>>>>>>:@>>>>>>>>>:>>>>>"
};
