/* XPM */
static char *_c619a7436954c49ba64574e5e263886W4Ta0mJR8GNfjVhq[] = {
/* columns rows colors chars-per-pixel */
"32 32 19 1 ",
"  c #0C0A07",
". c #362623",
"X c #3A2B28",
"o c #2F3438",
"O c #4C342F",
"+ c #553D39",
"@ c #4C403D",
"# c #554C3C",
"$ c #383E42",
"% c #42494F",
"& c #425059",
"* c #4F585E",
"= c #634A45",
"- c #5F7050",
"; c #57636B",
": c #6E7D61",
"> c #8F9D84",
", c #D2A394",
"< c #E4B5A5",
/* pixels */
"%%%%%%%%%%%%%%%%%%%%%%%%%%%%%%%%",
"%%%%%%%%%%%%%%%%%%%%%%%%%%%%%%%%",
"%%%%%%%%%%%%% %%  %%%%%%%%%%%%%%",
"%%%%%%%%%%%% O  OO   %%%%%%%%%%%",
"%%%%%%%%%%% O=OO==OOO %%%%%%%%%%",
"%%%%%%%%$% ========= %$%%%%%%%%%",
"%%%%%%%%$ O=======OO= %%%%%%%%%%",
"%%%%%%%% OO======O=== $%%%%%%%%%",
"%%%%%%%%$ ===========O %%%%%%%%%",
"%%%%%%%%% +==O=O====O $%%%%%%%%%",
"%%%%%%%% ++===O=====+ $%%%$$$$$%",
"%%%%%%%%% ++========++ %%%%%%%$$",
"%%%%%%%%$ +++======++ $$*%%%%%$o",
"%%%%%%%%$% ++====+++ %$*%%%%%%%$",
"%%%%%%%$$%% +++++++ %%%%%%%%%%%$",
"%%%%%%$o$% X:X:::X:X %$%%%%%%%%$",
"%%%$$$$$oo XX:::::XX %$%%%%$$$$$",
"%%%*%%%%$ XXX:::::XXX $o%$$*%%$o",
"%%*%%%%%$ @:X:>>>:X:@ oo$**%%$oo",
"%%%%%%%% @@ ::---:: @@ $$%%%%$o$",
"%$%%%%%% <, X:>>>:X ,< $$$$$$$o$",
"%$%%%%%%%   &&&&&&&   $$*%%%%%$$",
"%$%%%%%%$%% &;;;;;& %%$*%%%%%%$$",
"$o$$$%%%$%% &;;;;;& %%$%%%%%%%%o",
"$$$%%%%%$$% &&& &&& %%$%%%%%%%%o",
"%$%%%%%$oo$ && $ && %$oo$%%%%%%$",
"%%*%%%%$o$* .. % .. $$$oo$%%%%$o",
"%*%%%%%%$* #.. % ..# $$$$$$$$$oo",
"%%%%%%%%$%           $$$%%$%%%%%",
"%%%%%%%%$%%%%%%%$%%%%%%%%%$%%%%%",
"%%%%%%%$$%%%%%%%$%%%%%%%%%$%%%%%",
"$%%%%%$o$%%%%%%$o%%%%%%%%%$%%%%%"
};
