/* XPM */
static char *e54cd24d3eb1478898e017cfa8b59c92lud94FLWQUoscafV[] = {
/* columns rows colors chars-per-pixel */
"32 32 23 1 ",
"  c #0C0A07",
". c #272B2D",
"X c #362623",
"o c #3A2B28",
"O c #2E3337",
"+ c #2F3437",
"@ c #2F3438",
"# c #4C342F",
"$ c #553D39",
"% c #4C403D",
"& c #554C3C",
"* c #373D42",
"= c #383E42",
"- c #42494F",
"; c #425059",
": c #4F585E",
"> c #634A45",
", c #5F7050",
"< c #57636B",
"1 c #6E7D61",
"2 c #8F9D84",
"3 c #D2A394",
"4 c #E4B5A5",
/* pixels */
"--------------------------------",
"--------------------------------",
"--------------------------------",
"------------- --  --------------",
"------------ #  ##   -----------",
"--------=-- #>##>>### =---------",
"--------=- >>>>>>>>> -----------",
"--------= #>>>>>>>##> =---------",
"-------- ##>>>>>>#>>> =---------",
"--------- >>>>>>>>>>># ---------",
"--------= $>>#>#>>>># =---=====-",
"-------- $$>>>#>>>>>$ =-------==",
"--------= $$>>>>>>>>$$ =:-----=@",
"--------= $$$>>>>>>$$ =:-------=",
"-------==- $$>>>>$$$ ----------=",
"------=@=-- $$$$$$$ --=--------=",
"---=====@@ o1o111o1o -=----=====",
"---:----== oo11111oo -=@-==:--=@",
"--:-----= ooo11111ooo @@=::--=@@",
"--------= %1o12221o1% @==----=@=",
"-=------ %% 11,,,11 %% =======@=",
"-=------ 43 o12221o 34 =:-----==",
"-=------=   ;;;;;;;   =:------==",
"=@===---=-- ;<<<<<; --=--------@",
"===-----==- ;;; ;;; --=--------@",
"-=-----=@@= ;; = ;; -=@@=------=",
"--:----=@=: XX - XX ===@@=----=@",
"-:------=: &XX - XX& =========@@",
"--------+*OOOOOO.OOO.++=--=-----",
"--------=*******+*****----=-----",
"-------==-------=---------=-----",
"=-----=@=------=@---------=-----"
};
