/* XPM */
static char *_17653ed9b3a485c878fe47aa4b3dfb8GLvOwe31qP0sGBLL[] = {
/* columns rows colors chars-per-pixel */
"32 32 22 1 ",
"  c #0C0A07",
". c #291A18",
"X c #362623",
"o c #3A2B28",
"O c #2F3438",
"+ c #4C342F",
"@ c #553D39",
"# c #4C403D",
"$ c #554C3C",
"% c #383E42",
"& c #42494F",
"* c #425059",
"= c #4F585E",
"- c #634A45",
"; c #57636B",
": c #6E7D61",
"> c #B56A68",
", c #87947C",
"< c #C0AC98",
"1 c #D2A394",
"2 c #E4B5A5",
"3 c #DBCBBC",
/* pixels */
"&&&&&&&&&&&&&&&&&&&&&&&&&&&&&&&&",
"&&&&&&&&&&&&&&&&&&&&&&&&&&&&&&&&",
"&&&&&&&&&&&&&  && &&&&&&&&&&&&&&",
"&&&&&&&&&&   ++  + &&&&&&&&&&&&&",
"&&&&&&&&& +++--++-+ &&&&&&&&&&&&",
"&&&&&&&&%& --------- &%&&&&&&&&&",
"&&&&&&&&% ----------+ &&&&&&&&&&",
"&&&&&&&&% ---++-+---++ &&&&&&&&&",
"&&&&&&&& ++--1+-1---- %&&&&&&&&&",
"&&&&&&&&& +-111-11--- %&&&&&&&&&",
"&&&&&&&&% --1 212 1+-- &&&%%%%%&",
"&&&&&&&& @->1.222.1>@ %&&&&&&&%%",
"&&&&&&&&% @@1222221@@ %%=&&&&&%O",
"&&&&&&&&%& @@12221@@ &%=&&&&&&&%",
"&&&&&&&%%&& @ 111 @ &&&&&&&&&&&%",
"&&&&&&%O%& o:o<<<o:o &%&&&&&&&&%",
"&&&%%%%%OO o:#33<#:o &%&&&&%%%%%",
"&&&=&&&&% oo,#333#,oo %O&%%=&&%O",
"&&=&&&&&% #o:#<33#:o# OO%==&&%OO",
"&&&&&&&& ##oo#3<3#oo## %%&&&&%O%",
"&%&&&&&& 21 oo***oo 12 %%%%%%%O%",
"&%&&&&&&&   *******   %%=&&&&&%%",
"&%&&&&&&%&& *;;;;;* &&%=&&&&&&%%",
"%O%%%&&&%&& *;;*;;* &&%&&&&&&&&O",
"%%%&&&&&%%& *;* *;* &&%&&&&&&&&O",
"&%&&&&&%OO% ** % ** &%OO%&&&&&&%",
"&&=&&&&%O%= XX & XX %%%OO%&&&&%O",
"&=&&&&&&%= $$X & X$$ %%%%%%%%%OO",
"&&&&&&&&%&           %%%&&%&&&&&",
"&&&&&&&&%&&&&&&&%&&&&&&&&&%&&&&&",
"&&&&&&&%%&&&&&&&%&&&&&&&&&%&&&&&",
"%&&&&&%O%&&&&&&%O&&&&&&&&&%&&&&&"
};
