/* XPM */
static char *_8739bba3747480df43ffb1121193c4aXW9ovoWq7DJBpxhY[] = {
/* columns rows colors chars-per-pixel */
"32 32 26 1 ",
"  c #0C0A07",
". c #291A18",
"X c #272B2D",
"o c #362623",
"O c #3A2B28",
"+ c #2E3337",
"@ c #2F3437",
"# c #2F3438",
"$ c #4C342F",
"% c #553D39",
"& c #4C403D",
"* c #554C3C",
"= c #373D42",
"- c #383E42",
"; c #42494F",
": c #425059",
"> c #4F585E",
", c #634A45",
"< c #57636B",
"1 c #6E7D61",
"2 c #B56A68",
"3 c #87947C",
"4 c #C0AC98",
"5 c #D2A394",
"6 c #E4B5A5",
"7 c #DBCBBC",
/* pixels */
";;;;;;;;;;;;;;;;;;;;;;;;;;;;;;;;",
";;;;;;;;;;;;;;;;;;;;;;;;;;;;;;;;",
";;;;;;;;;;;;;;;;;;;;;;;;;;;;;;;;",
";;;;;;;;;;;;;  ;; ;;;;;;;;;;;;;;",
";;;;;;;;;;   $$  $ ;;;;;;;;;;;;;",
";;;;;;;;- $$$,,$$,$ ;;-;;;;;;;;;",
";;;;;;;;-; ,,,,,,,,, ;;;;;;;;;;;",
";;;;;;;;- ,,,,,,,,,,$ -;;;;;;;;;",
";;;;;;;;- ,,,$$,$,,,$$ ;;;;;;;;;",
";;;;;;;; $$,,5$,5,,,, -;;;;;;;;;",
";;;;;;;;- $,555,55,,, -;;;-----;",
";;;;;;;;; ,,5 656 5$,, ;;;;;;;--",
";;;;;;;; %,25.666.52% -->;;;;;-#",
";;;;;;;;- %%5666665%% ->;;;;;;;-",
";;;;;;;--; %%56665%% ;;;;;;;;;;-",
";;;;;;-#-;; % 555 % ;;-;;;;;;;;-",
";;;-----## O1O444O1O ;-;;;;-----",
";;;>;;;;-- O1&774&1O ;-#;-->;;-#",
";;>;;;;;- OO3&777&3OO ##->>;;-##",
";;;;;;;;- &O1&477&1O& #--;;;;-#-",
";-;;;;;; && O&747&O && -------#-",
";-;;;;;; 65 OO:::OO 56 ->;;;;;--",
";-;;;;;;-   :<<<<<:   ->;;;;;;--",
"-#---;;;-;; :<<:<<: ;;-;;;;;;;;#",
"---;;;;;--; :<: :<: ;;-;;;;;;;;#",
";-;;;;;-##- :: - :: ;-##-;;;;;;-",
";;>;;;;-#-> oo ; oo ---##-;;;;-#",
";>;;;;;;-> **o ; o** ---------##",
";;;;;;;;@=++++++X+++X@@-;;-;;;;;",
";;;;;;;;-=======@=====;;;;-;;;;;",
";;;;;;;--;;;;;;;-;;;;;;;;;-;;;;;",
"-;;;;;-#-;;;;;;-#;;;;;;;;;-;;;;;"
};
