/* XPM */
static char *_73ae874295c463eb21d813ce5b9b70d[] = {
/* columns rows colors chars-per-pixel */
"32 32 23 1 ",
"  c #0C0A07",
". c #291A18",
"X c #362623",
"o c #3A2B28",
"O c #2F3438",
"+ c #4C342F",
"@ c #553D39",
"# c #4C403D",
"$ c #554C3C",
"% c #383E42",
"& c #42494F",
"* c #425059",
"= c #4F585E",
"- c #634A45",
"; c #657358",
": c #57636B",
"> c #6E7D61",
", c #B56A68",
"< c #87947C",
"1 c #C0AC98",
"2 c #D2A394",
"3 c #E4B5A5",
"4 c #DBCBBC",
/* pixels */
"&&&&&&&&&&&&&&&&&&&&&&&&&&&&&&&&",
"&&&&&&&&&&&&&&&&&&&&&&&&&&&&&&&&",
"&&&&&&&&&&&&&& &  &&&&&&&&&&&&&&",
"&&&&&&&&&&&&  + ++  &&&&&&&&&&&&",
"&&&&&&&&&&& @--+--@+  &&&&&&&&&&",
"&&&&&&&&%&&& -------+@ &&&&&&&&&",
"&&&&&&&&%&& @-------@@ &&&&&&&&&",
"&&&&&&&&%&& -++------@ &&&&&&&&&",
"&&&&&&&&%& +-2+-+---@++ &&&&&&&&",
"&&&&&&&&&%% -22-2----+ &&&&&&&&&",
"&&&&&&&&%&& 2 23 2-+-@@ &&%%%%%&",
"&&&&&&&&&& +2.33.22,-@ &&&&&&&%%",
"&&&&&&&&%&& 2333322@@@ %=&&&&&%O",
"&&&&&&&&%&&& 23332@@@ %=&&&&&&&%",
"&&&&&&&%%&&&& 222 @@ &&&&&&&&&&%",
"&&&&&&%O%&&& o111o>o &%&&&&&&&&%",
"&&&%%%%%OO%% o441#>o &%&&&&%%%%%",
"&&&=&&&&%%= #o444#<oo %O&%%=&&%O",
"&&=&&&&&%=& #o144##># OO%==&&%OO",
"&&&&&&&&%= #oo414#o;## %%&&&&%O%",
"&%&&&&&&&& 2oo***oo;23 %%%%%%%O%",
"&%&&&&&&&&&  ******   %%=&&&&&%%",
"&%&&&&&&%&&& ::::** &&%=&&&&&&%%",
"%O%%%&&&%&&& ::*::* &&%&&&&&&&&O",
"%%%&&&&&%%&& :* *:* &&%&&&&&&&&O",
"&%&&&&&%OO%% ** *:* &%OO%&&&&&&%",
"&&=&&&&%O%=& XX XXX %%%OO%&&&&%O",
"&=&&&&&&%=& $$X $$$ %%%%%%%%%%OO",
"&&&&&&&&%&&         %%%%&&%&&&&&",
"&&&&&&&&%&&&&&&&%&&&&&&&&&%&&&&&",
"&&&&&&&%%&&&&&&&%&&&&&&&&&%&&&&&",
"%&&&&&%O%&&&&&&%O&&&&&&&&&%&&&&&"
};
