/* XPM */
static char *_24f2d18f177476994982bb2568825c5yW2a8HI5Qar4f2PX[] = {
/* columns rows colors chars-per-pixel */
"32 32 27 1 ",
"  c #0C0A07",
". c #291A18",
"X c #272B2D",
"o c #362623",
"O c #3A2B28",
"+ c #2E3337",
"@ c #2F3437",
"# c #2F3438",
"$ c #4C342F",
"% c #553D39",
"& c #4C403D",
"* c #554C3C",
"= c #373D42",
"- c #383E42",
"; c #42494F",
": c #425059",
"> c #4F585E",
", c #634A45",
"< c #657358",
"1 c #57636B",
"2 c #6E7D61",
"3 c #B56A68",
"4 c #87947C",
"5 c #C0AC98",
"6 c #D2A394",
"7 c #E4B5A5",
"8 c #DBCBBC",
/* pixels */
";;;;;;;;;;;;;;;;;;;;;;;;;;;;;;;;",
";;;;;;;;;;;;;;;;;;;;;;;;;;;;;;;;",
";;;;;;;;;;;;;;;;;;;;;;;;;;;;;;;;",
";;;;;;;;;;;;;; ;  ;;;;;;;;;;;;;;",
";;;;;;;;;;;;  $ $$  ;;;;;;;;;;;;",
";;;;;;;;-;; %,,$,,%$  -;;;;;;;;;",
";;;;;;;;-;;; ,,,,,,,$% ;;;;;;;;;",
";;;;;;;;-;; %,,,,,,,%% ;;;;;;;;;",
";;;;;;;;-;; ,$$,,,,,,% ;;;;;;;;;",
";;;;;;;;;- $,6$,$,,,%$$ ;;;;;;;;",
";;;;;;;;-;; ,66,6,,,,$ ;;;-----;",
";;;;;;;;;;; 6 67 6,$,%% ;;;;;;--",
";;;;;;;;-; $6.77.663,% ->;;;;;-#",
";;;;;;;;-;; 6777766%%% >;;;;;;;-",
";;;;;;;--;;; 67776%%% ;;;;;;;;;-",
";;;;;;-#-;;;; 666 %% ;-;;;;;;;;-",
";;;-----##-- O555O2O ;-;;;;-----",
";;;>;;;;-->; O885&2O ;-#;-->;;-#",
";;>;;;;;->; &O888&4OO ##->>;;-##",
";;;;;;;;->; &O588&&2& #--;;;;-#-",
";-;;;;;;;; &OO858&O<&& -------#-",
";-;;;;;;;; 6OO:::OO<67 ->;;;;;--",
";-;;;;;;-;;  1111::   ->;;;;;;--",
"-#---;;;-;;; 11:11: ;;-;;;;;;;;#",
"---;;;;;--;; 1: :1: ;;-;;;;;;;;#",
";-;;;;;-##-- :: :1: ;-##-;;;;;;-",
";;>;;;;-#->; oo ooo ---##-;;;;-#",
";>;;;;;;->; **o *** ----------##",
";;;;;;;;-==+++++X+++@@@-;;-;;;;;",
";;;;;;;;-;======@=====;;;;-;;;;;",
";;;;;;;--;;;;;;;-;;;;;;;;;-;;;;;",
"-;;;;;-#-;;;;;;-#;;;;;;;;;-;;;;;"
};
