/* XPM */
static char *_e1df6e3e67c4f3bbb24200cf3c3f8fetUnhpa1PAOSQ3MIS[] = {
/* columns rows colors chars-per-pixel */
"32 32 28 1 ",
"  c black",
". c #0C0A07",
"X c #291A18",
"o c #272B2D",
"O c #362623",
"+ c #3A2B28",
"@ c #2E3337",
"# c #2F3437",
"$ c #2F3438",
"% c #4C342F",
"& c #553D39",
"* c #4C403D",
"= c #554C3C",
"- c #373D42",
"; c #383E42",
": c #42494F",
"> c #425059",
", c #4F585E",
"< c #634A45",
"1 c #657358",
"2 c #57636B",
"3 c #6E7D61",
"4 c #B56A68",
"5 c #87947C",
"6 c #C0AC98",
"7 c #D2A394",
"8 c #E4B5A5",
"9 c #DBCBBC",
/* pixels */
"::::::::::::::::::::::::::::::::",
"::::::::::::::::::::::::::::::::",
"::::::::::::::::::::::::::::::::",
"::::::::::::::...:.:::::::::::::",
"::::::::::....%%%.%.::::::::::::",
"::::::::;.%%%&<<<%<.::;:::::::::",
"::::::::;:.&<<<<<<<<.:::::::::::",
"::::::::;.&<<<<<<<<<.:;:::::::::",
"::::::::;.&<<<<%%<<< :;:::::::::",
"::::::::.%%&<<<7%<%<& ;:::::::::",
"::::::::;.%<<<777<7< :;:::;;;;;:",
":::::::::.&<<77.87.7& ;:::::::;;",
"::::::::.%&<477X88X7 :;;,:::::;$",
"::::::::;.&&&7788887 :;,:::::::;",
":::::::;;:.&&&78887 :::::::::::;",
"::::::;$;:::.&&777.:::;::::::::;",
":::;;;;;$$;.+3+666+.::;::::;;;;;",
":::,::::;;,.+3*996+.::;$:;;,::;$",
"::,:::::;,.++5*999+*.;$$;,,::;$$",
"::::::::;,.*3**699+*.$$;;::::;$;",
":;:::::::.**1+*969++*.;;;;;;;;$;",
":;:::::::.871++>>>++7.;;,:::::;;",
":;::::::;:...>>2222..:;,::::::;;",
";$;;;:::;:::.>22>22.::;::::::::$",
";;;:::::;;::.>2>.>2.::;::::::::$",
":;:::::;$$;;.>2>.>>.:;$$;::::::;",
"::,::::;$;,:.OOO.OO.;;;$$;::::;$",
":,::::::;,::.===.O==.;;;;;;;;;$$",
"::::::::;---@@@@o@@@o##;::;:::::",
"::::::::;:------#-----::::;:::::",
":::::::;;:::::::;:::::::::;:::::",
";:::::;$;::::::;$:::::::::;:::::"
};
