/* XPM */
static char *ec429bcb96a94afe9dc3efab29fb7261[] = {
/* columns rows colors chars-per-pixel */
"32 32 24 1 ",
"  c black",
". c #0C0A07",
"X c #291A18",
"o c #362623",
"O c #3A2B28",
"+ c #2F3438",
"@ c #4C342F",
"# c #553D39",
"$ c #4C403D",
"% c #554C3C",
"& c #383E42",
"* c #42494F",
"= c #425059",
"- c #4F585E",
"; c #634A45",
": c #657358",
"> c #57636B",
", c #6E7D61",
"< c #B56A68",
"1 c #87947C",
"2 c #C0AC98",
"3 c #D2A394",
"4 c #E4B5A5",
"5 c #DBCBBC",
/* pixels */
"********************************",
"********************************",
"**************...*.*************",
"**********....@@@.@.************",
"*********.@@@#;;;@;.************",
"********&*.#;;;;;;;;.*&*********",
"********&.#;;;;;;;;;.***********",
"********&.#;;;;@@;;; *&*********",
"********.@@#;;;3@;@;# &*********",
"*********.@;;;333;3; *&*********",
"********&.#;;33.44.3# &***&&&&&*",
"********.@#;<33X44X3 *&*******&&",
"********&.###3344443 *&&-*****&+",
"********&*.###34443 **&-*******&",
"*******&&**.##.333.************&",
"******&+&**.O,O222O.**&********&",
"***&&&&&++&.O,$552O.**&****&&&&&",
"***-****&&.OO1$555O$.*&+*&&-**&+",
"**-*****&-.$,$$255O$.&++&--**&++",
"********&.$$:O$525OO$.+&&****&+&",
"*&*******.43:OO===OO3.&&&&&&&&+&",
"*&********...======..*&&-*****&&",
"*&******&***.==>>>=.**&-******&&",
"&+&&&***&***.=>>=>>.**&********+",
"&&&*****&&**.=>=.=>.**&********+",
"*&*****&++&&.=>=.==.*&++&******&",
"**-****&+&-*.ooo.oo.&&&++&****&+",
"*-******&-**.%%%.o%%.&&&&&&&&&++",
"********&***.........&&&**&*****",
"********&*******&*********&*****",
"*******&&*******&*********&*****",
"&*****&+&******&+*********&*****"
};
