/* XPM */
static char *_8d2998c86744ee58d38728ab3dd6c4a[] = {
/* columns rows colors chars-per-pixel */
"32 32 16 1 ",
"  c #141A1A",
". c #1E351E",
"X c #311E29",
"o c #2F3438",
"O c #532825",
"+ c #7A3E2A",
"@ c #386038",
"# c #383E42",
"$ c #42494F",
"% c #574D47",
"& c #4F585E",
"* c #737B7A",
"= c #AC6143",
"- c #C98E54",
"; c #90A5A2",
": c #BDD0CE",
/* pixels */
"$$$$$$$$$$$$$$$$$$$$$$$$$$$$$$$$",
"$$$$$$$$$$$$$$$$$$$$$$$$$$$$$$$$",
"$$$$$$$$$$$$$$$$$$$$$$$$$$$$$$$$",
"$$$$$$X::OO++++::OO++++::X$$$$$$",
"$$$$$$X;:+=---=;;+=---=:;X$$$$$$",
"$$$$$$X*;+=====**O+====;*X$$$$$$",
"$$$$$$X**O++++;;;;O++++**X$$$$$$",
"$$$$$$X       ;%%;       X$$$$$$",
"$$$$$$X%      *;;*      %X$$$$$$",
"$$$$$$X%       **       %X$$$$$$",
"$$$$$$X%  ....    ....  %X#####$",
"$$$$$$X% .............. %X$$$$##",
"$$$$$$X                  X$$$$#o",
"$$$$$$X* .............. *X$$$$$#",
"$$$$$$X* @@@@@@@@@@@@@@ *X$$$$$#",
"$$$$$$X* ..@@@@@@@@@@.. *X$$$$$#",
"$$$###X* .@@@@@@@@@@@@. *X$#####",
"$$$&$$X;  ............  ;X#&$$#o",
"$$&$$$X;                ;X&$$#oo",
"$$$$$$X;;;;+========+;;;;X$$$#o#",
"$#$$$$X::::++++XX++++::::X####o#",
"$#$$$$X;;*;+===OO===+;*;;X$$$$##",
"$#$$$$XXXXX++++++++++XXXXX$$$$##",
"#o###$XOOOOOOOOOOOOOOOOOOX$$$$$o",
"###$$$X::::+========+::::X$$$$$o",
"$#$$$$X;;*;++++++++++;*;;X$$$$$#",
"$$&$$$$XXXXXXXXXXXXXXXXXX#$$$$#o",
"$&$$$$$$#&$$$$$$##############oo",
"$$$$$$$$#$$$$$$$#$$$####$$#$$$$$",
"$$$$$$$$#$$$$$$$#$$$$$$$$$#$$$$$",
"$$$$$$$##$$$$$$$#$$$$$$$$$#$$$$$",
"#$$$$$#o#$$$$$$#o$$$$$$$$$#$$$$$"
};
