/* XPM */
static char *cc96e8410c844579b71839b62e39a097[] = {
/* columns rows colors chars-per-pixel */
"32 32 14 1 ",
"  c #311E29",
". c #3D2C2E",
"X c #2F3438",
"o c #532825",
"O c #7A3E2A",
"+ c #383E42",
"@ c #42494F",
"# c #574D47",
"$ c #4F585E",
"% c #737B7A",
"& c #AC6143",
"* c #C98E54",
"= c #90A5A2",
"- c #BDD0CE",
/* pixels */
"@@@@@@@@@@@@@@@@@@@@@@@@@@@@@@@@",
"@@@@@@@@@@@@@@@@@@@@@@@@@@@@@@@@",
"@@@@@@@@@@@@@@@@@@@@@@@@@@@@@@@@",
"@@@@@@@@@@@@@@@@@@@@@@@@@@@@@@@@",
"@@@@@@@@@@@@@@@@@@@@@@@@@@@@@@@@",
"@@@@@@@@+@@@@@@@@@@@@@+@@@@@@@@@",
"@@@@@@@@+@@@@@@@@@@@@@@@@@@@@@@@",
"@@@@@@@@+@@@@@@@+@@@@@+@@@@@@@@@",
"@@@@@@o==oOOOOO==ooOOOO==o@@@@@@",
"@@@@@@o=-O&***&-=O&***&-=o@@@@@@",
"@@@@@@o--O&**&&--O&&**&--o+++++@",
"@@@@@@o--ooOOOO--ooOOOO--o@@@@++",
"@@@@@@ --O&***&--O&***&-- @@@@+X",
"@@@@@@ --O&&&&&--O&&&&&-- @@@@@+",
"@@@@@@ =-O&***&-=O&***&-= @@@@@+",
"@@@@@@ ==ooOOOO==ooOOOO== @@@@@+",
"@@@+++ %=O&***&=%O&***&=% @+++++",
"@@@$@@ %%O&&&&&%%oO&&&&%% +$@@+X",
"@@$@@@ %%oOOOO-==-oOOOO%% $@@+XX",
"@@@@@@o       ====       o@@@+X+",
"@+@@@@ ----ooo=..=ooo---- ++++X+",
"@+@@@@ ==%=O&&=##=&&O=%== @@@@++",
"@+@@@@     OOO%==%OOO     @@@@++",
"+X+++@ oooooooo%%oooooooo @@@@@X",
"+++@@@ ----O&&OooO&&O---- @@@@@X",
"@+@@@@ ==%=OOOOOOOOOO=%== @@@@@+",
"@@$@@@@                  +@@@@+X",
"@$@@@@@@+$@@@@@@++++++++++++++XX",
"@@@@@@@@+@@@@@@@+@@@++++@@+@@@@@",
"@@@@@@@@+@@@@@@@+@@@@@@@@@+@@@@@",
"@@@@@@@++@@@@@@@+@@@@@@@@@+@@@@@",
"+@@@@@+X+@@@@@@+X@@@@@@@@@+@@@@@"
};
