/* XPM */
static char *a5259d1e09634f908384d6423870dbdaC1RGS5Nt0VVyyi2D[] = {
/* columns rows colors chars-per-pixel */
"32 32 4 1 ",
"  c #2F3438",
". c #383E42",
"X c #42494F",
"o c #4F585E",
/* pixels */
"XXXXXXXXXXXXXXXXXXXXXXXXXXXXXXXX",
"XXXXXXXXXXXXXXXXXXXXXXXXXXXXXXXX",
"XXXXXXXXXXXXXXXXXXXXXXXXXXXXXXXX",
"XXXXXXXXXXXXXXXXXXXXXXXXXXXXXXXX",
"XXXXXXXXXXXXXXXXXXXXXXXXXXXXXXXX",
"XXXXXXXX.XXXXXXXXXXXXX.XXXXXXXXX",
"XXXXXXXX.XXXXXXXXXXXXXXXXXXXXXXX",
"XXXXXXXX.XXXXXXX.XXXXX.XXXXXXXXX",
"XXXXXXXX.XXXXXXXXXXXXX.XXXXXXXXX",
"XXXXXXXXX........XXXXX.XXXXXXXXX",
"XXXXXXXX.XXXXXX..XXXXX.XXX.....X",
"XXXXXXXXXXXXXXXX.XXXXX.XXXXXXX..",
"XXXXXXXX.XXXXXXX.XXXXX..oXXXXX. ",
"XXXXXXXX.XXXXXXX.XXXXX.oXXXXXXX.",
"XXXXXXX..XXXXXXX.XXXXXXXXXXXXXX.",
"XXXXXX. .XXXXXX. XXXXX.XXXXXXXX.",
"XXX.....  .....  XXXXX.XXXX.....",
"XXXoXXXX..oXXXXXXXXXXX. X..oXX. ",
"XXoXXXXX.oXXXXXXXXXXX.  .ooXX.  ",
"XXXXXXXX.oXXXXXXX..X.  ..XXXX. .",
"X.XXXXXXXXXXXXXXXXX........... .",
"X.XXXXXXXXXXXXXXXXX.XX..oXXXXX..",
"X.XXXXXX.XXXXXXX.X.oXX.oXXXXXX..",
". ...XXX.XXXXXX. .oXXX.XXXXXXXX ",
"...XXXXX..XXXX.  XXXXX.XXXXXXXX ",
"X.XXXXX.  .......XXXX.  .XXXXXX.",
"XXoXXXX. .oXXXXX.XXX...  .XXXX. ",
"XoXXXXXX.oXXXXXX..............  ",
"XXXXXXXX.XXXXXXX.XXX....XX.XXXXX",
"XXXXXXXX.XXXXXXX.XXXXXXXXX.XXXXX",
"XXXXXXX..XXXXXXX.XXXXXXXXX.XXXXX",
".XXXXX. .XXXXXX. XXXXXXXXX.XXXXX"
};
