/* XPM */
static char *_3bf1e471cdd44368999cadc44c2d297[] = {
/* columns rows colors chars-per-pixel */
"96 32 205 2 ",
"   c black",
".  c #0B0202",
"X  c #130303",
"o  c #1A0504",
"O  c #160B0B",
"+  c #1D0B0A",
"@  c #250505",
"#  c #230B0C",
"$  c #2C0D0C",
"%  c #320404",
"&  c #3B0505",
"*  c #35070B",
"=  c #320A0A",
"-  c #3B0D0D",
";  c #251414",
":  c #281A19",
">  c #341414",
",  c #391313",
"<  c #3E1817",
"1  c #361B1B",
"2  c #3C1C1C",
"3  c #2F2020",
"4  c #440404",
"5  c #480403",
"6  c #410807",
"7  c #410C0D",
"8  c #4A0D0D",
"9  c #540404",
"0  c #5C0505",
"q  c #540807",
"w  c #550A09",
"e  c #5F0A0A",
"r  c #56100F",
"t  c #441312",
"y  c #4C1413",
"u  c #451D1C",
"i  c #501214",
"p  c #5B1413",
"a  c #5F1718",
"s  c #541B19",
"d  c #5F1C1A",
"f  c #640404",
"g  c #660C0B",
"h  c #6B0B0B",
"j  c #730706",
"k  c #7A0505",
"l  c #7A0806",
"z  c #7D0C0C",
"x  c #65110F",
"c  c #631211",
"v  c #6C1312",
"b  c #631C1B",
"n  c #6F1B1A",
"m  c #741312",
"M  c #7B1313",
"N  c #75191A",
"B  c #7F1A1B",
"V  c #561F20",
"C  c #4F2223",
"Z  c #4E2927",
"A  c #442E2F",
"S  c #542220",
"D  c #5E292A",
"F  c #642321",
"G  c #6C2525",
"H  c #6B2B2B",
"J  c #702324",
"K  c #643231",
"L  c #7C3334",
"P  c #860707",
"I  c #8B0505",
"U  c #8F0806",
"Y  c #800D0C",
"T  c #8B0D0C",
"R  c #940505",
"E  c #9C0404",
"W  c #960807",
"Q  c #9D0807",
"!  c #960709",
"~  c #950B0B",
"^  c #9B0C0C",
"/  c #93110F",
"(  c #9B120E",
")  c #900F10",
"_  c #831414",
"`  c #8B1414",
"'  c #861A1A",
"]  c #8D1C1B",
"[  c #931413",
"{  c #9B1514",
"}  c #941C1B",
"|  c #9D1D1B",
" . c #A50606",
".. c #AD0503",
"X. c #A10807",
"o. c #AA0807",
"O. c #A30C0C",
"+. c #AB0C0B",
"@. c #B20503",
"#. c #B30806",
"$. c #B30B09",
"%. c #BB0C0B",
"&. c #AA100F",
"*. c #BE0F10",
"=. c #A31312",
"-. c #A71917",
";. c #A41C1B",
":. c #AB1B1B",
">. c #B21414",
",. c #BA1515",
"<. c #B5191A",
"1. c #BB1B1A",
"2. c #A4201F",
"3. c #831F21",
"4. c #822423",
"5. c #882927",
"6. c #8C2B2B",
"7. c #932423",
"8. c #9A2525",
"9. c #9C2A29",
"0. c #89302F",
"q. c #98302E",
"w. c #9A3534",
"e. c #A42524",
"r. c #AC2424",
"t. c #A42826",
"y. c #A32D2C",
"u. c #AB2A2A",
"i. c #B62424",
"p. c #BF2223",
"a. c #B12826",
"s. c #BD2927",
"d. c #B52C2B",
"f. c #BE2D2C",
"g. c #A73231",
"h. c #C10504",
"j. c #C80606",
"k. c #C50907",
"l. c #CB0907",
"z. c #C50C0B",
"x. c #CA0C0B",
"c. c #D30604",
"v. c #DB0604",
"b. c #D00B06",
"n. c #DB0907",
"m. c #D60C0C",
"M. c #DB0D0B",
"N. c #D3110E",
"B. c #C31514",
"V. c #CD1716",
"C. c #C31B1B",
"Z. c #CB1B1B",
"A. c #D41414",
"S. c #DD1413",
"D. c #D41C1B",
"F. c #DC1C1C",
"G. c #E30603",
"H. c #EE0504",
"J. c #E10907",
"K. c #ED0907",
"L. c #E30D0C",
"P. c #EC0B09",
"I. c #F60604",
"U. c #FE0301",
"Y. c #F50906",
"T. c #FA0806",
"R. c #F40C0A",
"E. c #F90D0B",
"W. c #E6100E",
"Q. c #EF100E",
"!. c #F4120E",
"~. c #F9110E",
"^. c #E51614",
"/. c #ED1412",
"(. c #E71817",
"). c #ED1817",
"_. c #E61C1B",
"`. c #EB1C1C",
"'. c #F51413",
"]. c #F91312",
"[. c #F61A17",
"{. c #F31A1A",
"}. c #D4211F",
"|. c #D8201F",
" X c #E9201E",
".X c #C62625",
"XX c #CC2423",
"oX c #DD2323",
"OX c #D22C2C",
"+X c #DC2929",
"@X c #DA2E2D",
"#X c #DB302F",
"$X c #CA3836",
"%X c #C03B3A",
"&X c #D23533",
"*X c #DE3D3D",
"=X c #E52322",
"-X c #EB2423",
";X c #E42C2C",
":X c #EA2A29",
">X c #F12927",
",X c #F42B2B",
"<X c #E33434",
"1X c #EC3332",
"2X c #F13131",
/* pixels */
"                                                                                                            N D.] ,.7.                                                                          ",
"                  P S.-XC.e                                                             i -                 [ U.U.U.Y.v           n %.oX/.{.H.H.^.oXl.@.I e O                                   ",
"                +.U.U.U.U.R.e.                              .X:.h                   3 K (.D.                z U.U.U.U.:.        F R.U.U.U.U.U.U.U.U.U.U.U.U.O.                                  ",
"              2.U.U.U.R.U.U.U.a.                          p T.U.T.v                 8.I.U.E.u               F T.U.U.U...        y R.U.U.U.U.U.U.U.U.U.U.U.U.^                                   ",
"            M E.U.U.U._ /.U.U.T.z                         r.U.U.U.k.                p E.U.U.b               g.U.U.U.[...          C.U.U.U.U.U.U.U.U.U.U.U.Q.%                                   ",
"          @ L.U.U.U.m.  r.U.U.U.m.                        ;XU.U.U.I.6                 @XU.U.3.              @XU.U.U.1. .          C.U.U.U.M.v.v.}.B.Z.S.;.<.                                    ",
"          o.U.U.U.U.h   = `.U.U.U.d                     J U.U.U.U.U.O.                OXU.U.D.            C ].U.U.U.z.*           F.U.U./.          $ H O.U                                     ",
"        4 Y.U.U.U.b.      _ ~.U.U.[                     f.U.U.U.U.U.M.                oXU.U.T.m           { U.U.U.U.W.            _.U.U./.          9 O.& %                                     ",
"        ,.U.U.U.U.j         h &./.^                   ; -XU.U.U.U.U.T.7               >XU.U.U.A.          C.U.U.U.U.U.7           {.U.U.Y.                                                      ",
"      5 Y.U.U.U.n.              D.m                   0.U.U.U._.`.U.U.Y             S T.U.U.U.T.g       O :XU.U.U.U.U.z         2 U.U.U.T.                                                      ",
"      @.U.U.U.U.~               (.}                   XXU.U.U.T Z.U.U.&.            G U.U.U.U.U.B.      H T.U.U.U.U.U.o.        a U.U.U.U..           o                                         ",
"    @ H.U.U.U.Y.@               ^.S.                t '.U.U.T.& d.U.U.C.            8.U.U.U.U.U.R.6     u.U.U.U.U.U.U.x.        B U.U.U.U.;.y.%X.XF.).U.,X1.>                                   ",
"    I U.U.U.U.z.                l T                 | U.U.U.n.  w.U.U.D.            u.U.U.U.U.U.U.O.    +XU.U.U.U.U.U.^.        { U.U.U.U.U.U.U.U.U.U.U.U.U.C.                                  ",
"    k.U.U.U.U.I                                     oXU.U.U.@.  G U.U./..           $XU.U.U.U.U.U.W.X Z '.U.U.U.U.U.U.Y.2       E U.U.U.U.U.U.U.U.U.U.U.U.U._.                                  ",
"    J.U.U.U.T.=                                   D E.U.U.U.k   A ].U.U.c           *XU.U.U.U.U.U.U.3.y.U.U.U.U.U.U.U.U.L       E U.U.U.U.U.U.U.U.U.U.U.U.U.|.                                  ",
"    Y.U.U.U.M.          4 I  .@.$.^ e             u.U.U.U.I.o     1XU.U.=.          1XU.U.U.U.U.U.U.XXD.U.U.U.Z.U.U.U.U.8.      E U.U.U.U.U.T.L.z.~ q B.*./.{                                   ",
"    I.U.U.U.B.      ' M.U.U.U.U.U.U.U.n.f         D.U.U.U.c.      #XU.U.V.          :XU.U.U.&XT.U.U.T.T.U.U.P.` U.U.U.U.<.      E U.U.U.U.$.%         >.1 OX@                                   ",
"    R.U.U.U.:.    ] U.U.U.U.U.U.U.U.U.U.^.      % R.U.U.U. .    1 &XU.U.E.` o       :XU.U.U.e.m.U.U.U.U.U.U.z.g U.U.U.U.B.      E U.U.U.U.Q           8 # <X                                    ",
"    v.U.U.U.O.    T U.U.U.U.U.U.U.'.B.z S.      T U.U.U.U.h.x.=X'.U.U.U.U.U.R.+.    -XU.U.U.;.o.U.U.U.U.U.U.~ % U.U.U.U.m.      E U.U.U.U.Q               i.                                    ",
"    %.U.U.U.>.    + S.U.U.U.U.U.L.#     ).      %.U.U.U.U.U.U.U.U.U.U.U.U.T.M./.    -XU.U.U.=.w T.U.U.U.U.T.y . H.U.U.U.L.      W U.U.U.U.X.                                                    ",
"    f U.U.U./.<     y ).U.U.U.U.U.m     /.      P.U.U.U.U.U.U.U.U.I.U.U.U.k.  }      XU.U.U.X.  S.U.U.U.U._.    v.U.U.U./.      [ U.U.U.U.X.                                                    ",
"      l.U.U.U.F.w.t.V.T.U.U.U.U.U.W     q     p U.U.U.T.c.h.+.[ b u XXU.U.c.        `.U.U.U.E   -.U.U.U.U.B.    h.U.U.U.T.      } U.U.U.U.R.K.K.K.K.K._.,.b                                     ",
"      5 K.U.U.U.U.U.U.U.U.U.U.U.U.f           ;.U.U.U.c.            9.U.U.H.        (.U.U.U.E   S R.U.U.U.(     -.U.U.U.U.      q.U.U.U.U.U.U.U.U.U.U.U.U.Y.[                                   ",
"        0 W.U.U.U.U.U.U.U.U.U.I.D.            OXU.U.U.Q             s T.U.U.0       +XU.U.U.Q     F.U.U.U.x     [ U.U.U.I.      =XU.U.U.U.U.U.U.U.U.U.U.U.U./.                                  ",
"          7 A.U.U.U.U.U.I.G.U.m.S.8         : ,XU.U.'.-               =XU.U.W       8.U.U.U.{     B.U.U./.X     0 I.U.U.I.      A.U.U.U.U.U.U.U.U.U.U.U.U.U./.                                  ",
"            , C.0 R ~ h .   M Z.^.B.        H U.U.U.B.                u.U.U.%.      . ,.T.U.[     +.U.U.B.        1.U.U.H.      4 n.U.U.U.U.U.U.U.U.P.!.U.U.p.                                  ",
"            . ]               2.%./.        t.U.U.U.v                 y R.U.j.        X ;.E./     h Y.U.k         @ XXU.G.        X ,.~.%.#.<.{ 0 .   ; L.R.8                                   ",
"            t J.;           > XX  .         .XT.! T                   u d.T.{             D.[       _ Y.y           + -Xm.            5.                ,.g.                                    ",
"            ; R.6.@         ' S.            =XJ.  .X                  B =.XXo             h.]       . | .             +X4.            } 4               N.;Xr                                   ",
"              7.s.[         z _.            2Xx.  >..                 t 9 i..             :.4.      8 e.              c               %.R               j M.;.                                  ",
"                7.)         X =.            =X{                           ;.c             V $       , Z.                              :.M                 m 1.                                  ",
"                                            B                             F m             O.h         7.                                                                                        "
};
