/* XPM */
static char *fe5d5f583cc94b6ed16ff2fac9324f209EECgu5fPVHNvoFN[] = {
/* columns rows colors chars-per-pixel */
"32 32 8 1 ",
"  c #1B1E26",
". c #282C36",
"X c #37313A",
"o c #403645",
"O c #4B3F51",
"+ c #42494F",
"@ c #715F7C",
"# c #886F89",
/* pixels */
"+OOOOOOo.oOOOOOOOOOOOOOo.oOOOOo+",
"#@@@@@@@@@@@@@@@@@@@@@@@@@@@@@@o",
"#@@@@@@@O#@@@@@@@@@@@@@@O#@@@@@O",
"#@@@@@@@O#@@@@@@@@@@@@@@O#@@@@@O",
"#@@@@@@@O#@@@@@@@@@@@@@@O#@@@@@O",
"#######@O##############@O#####@o",
"#@OOOOOOo@OOOOOOOOOOOOOOo@OOOOOX",
"@OOOOOOOo@OOOOOOOOOOOOOOo@OOOOOX",
"@OOOOOOOoOOOOOOOOOOOOOOOoOOOOOOX",
"OOOOOOoX.XoOOOOOOOOOOOoX.XooOOOX",
"OO..............................",
"OoOOOOOOOOOOOOoX.XoOOOOOOOOOOoX.",
"Oooooooooooooooo.oooooooooooooo.",
"Oooooooooooooooo.oooooooooooooo.",
"Oooooooooooooooo.oooooooooooooo.",
"O...............................",
"OOOOOOOo.oOOOOOOOOOOOOOo.oOOOOO.",
"Oooooooo.ooooooooooooooo.oooooo.",
"Oooooooo.ooooooooooooooo.oooooo.",
"OooooooX.XoooooooooooooX.Xooooo.",
"O...............................",
"OXoOOOOOOOOOOOoX.XoOOOOOOOOOOOo.",
"Oooooooooooooooo.oooooooooooooo.",
"Oooooooooooooooo.oooooooooooooo.",
"Oooooooooooooooo.oooooooooooooo.",
"O...............................",
"oXXXXXXX...XXXXXXXXXXXXX...XXXX.",
"oXXXXXXXX.XXXXXXXXXXXXXXX.XXXXX.",
"oXXXXXXXX.XXXXXXXXXXXXXXX.XXXXX.",
"oXXXXXXXX.XXXXXXXXXXXXXXX.XXXXX.",
"......... ............... ......",
"                                "
};
