/* XPM */
static char *_c5dc3baa61c4ab8fa75066b3b1f451cRk345TaKMLupJKgH[] = {
/* columns rows colors chars-per-pixel */
"128 32 256 2 ",
"   c #010000",
".  c #0A0405",
"X  c #050A02",
"o  c #0A0B05",
"O  c #0C0C09",
"+  c #170709",
"@  c #130B0A",
"#  c #0B1306",
"$  c #0A1707",
"%  c #14170B",
"&  c #1A0912",
"*  c #1A1812",
"=  c #260D13",
"-  c #271818",
";  c #34161B",
":  c #0C2309",
">  c #15270D",
",  c #0F320E",
"<  c #1B2812",
"1  c #193614",
"2  c #26271B",
"3  c #263719",
"4  c #313F1F",
"5  c #351A24",
"6  c #33162B",
"7  c #372726",
"8  c #36372B",
"9  c #501018",
"0  c #6F0F1D",
"q  c #441D2C",
"w  c #751526",
"e  c #4A2A2F",
"r  c #483A34",
"t  c #533A37",
"y  c #6A303B",
"u  c #1A4619",
"i  c #1F551D",
"p  c #26471C",
"a  c #26541D",
"s  c #1A4620",
"d  c #2C4A21",
"f  c #364A24",
"g  c #285923",
"h  c #385826",
"j  c #216723",
"k  c #276625",
"l  c #356A2A",
"z  c #2A7629",
"x  c #36792E",
"c  c #44592D",
"v  c #57463C",
"b  c #4F5237",
"n  c #4A5537",
"m  c #694F37",
"M  c #446E2F",
"N  c #4A6834",
"B  c #556839",
"V  c #4A7634",
"C  c #587A3A",
"Z  c #6F7337",
"A  c #4A1743",
"S  c #57274C",
"D  c #72324E",
"F  c #78356B",
"G  c #554D46",
"H  c #664746",
"J  c #77484C",
"K  c #665748",
"L  c #75574C",
"P  c #6B5256",
"I  c #785754",
"U  c #5D7248",
"Y  c #66794A",
"T  c #6C6F54",
"R  c #766658",
"E  c #7A5469",
"W  c #786763",
"Q  c #787865",
"!  c #8C1A2B",
"~  c #A9162A",
"^  c #912635",
"/  c #B02B38",
"(  c #886F38",
")  c #873954",
"_  c #933550",
"`  c #A53753",
"'  c #8E3B6F",
"]  c #A33E64",
"[  c #884754",
"{  c #98465D",
"}  c #885859",
"|  c #905759",
" . c #AB4E59",
".. c #86655B",
"X. c #8E715D",
"o. c #A86044",
"O. c #8F526E",
"+. c #A84868",
"@. c #B4486D",
"#. c #A75867",
"$. c #B4566A",
"%. c #B94C73",
"&. c #BA5774",
"*. c #8F6C6B",
"=. c #987868",
"-. c #A8676B",
";. c #B86875",
":. c #AA7370",
">. c #B67879",
",. c #C34E77",
"<. c #C5577A",
"1. c #C5667C",
"2. c #C6737E",
"3. c #33852D",
"4. c #2F8B31",
"5. c #379833",
"6. c #37A835",
"7. c #36AB36",
"8. c #488936",
"9. c #58873C",
"0. c #479737",
"q. c #57993D",
"w. c #63873E",
"e. c #48A73A",
"r. c #54A73E",
"t. c #4CB73D",
"y. c #549441",
"u. c #5A9A41",
"i. c #658946",
"p. c #669846",
"a. c #74994C",
"s. c #738A53",
"d. c #749255",
"f. c #4EAA40",
"g. c #5BA742",
"h. c #5AB844",
"j. c #67A848",
"k. c #73A84D",
"l. c #66B549",
"z. c #6CBB4C",
"x. c #72B84E",
"c. c #78A753",
"v. c #68BC52",
"b. c #77B752",
"n. c #7ABC54",
"m. c #7C976A",
"M. c #5AC045",
"N. c #64C34A",
"B. c #6BC34D",
"V. c #70C54F",
"C. c #6CC553",
"Z. c #79C555",
"A. c #74CC52",
"S. c #7BCB55",
"D. c #7CD257",
"F. c #7FC865",
"G. c #8A8B58",
"H. c #85AA59",
"J. c #86B85A",
"K. c #92B35D",
"L. c #908C6D",
"P. c #998575",
"I. c #A98778",
"U. c #B48679",
"Y. c #AB9374",
"T. c #95A365",
"R. c #96B964",
"E. c #A9B36D",
"W. c #C38F7E",
"Q. c #83C359",
"!. c #83CC5A",
"~. c #8AC95D",
"^. c #90CA5F",
"/. c #84D45B",
"(. c #8AD45E",
"). c #8AD95E",
"_. c #8DCB6C",
"`. c #96C664",
"'. c #93CC62",
"]. c #8CD661",
"[. c #93D563",
"{. c #94DB64",
"}. c #9BD668",
"|. c #9DDC6A",
" X c #A1DB6C",
".X c #A5DD70",
"XX c #9DE16B",
"oX c #A3E26E",
"OX c #AAE572",
"+X c #A9E672",
"@X c #B2EB77",
"#X c #913D86",
"$X c #984B89",
"%X c #A75097",
"&X c #AA7282",
"*X c #AE50A1",
"=X c #B551A9",
"-X c #D65A85",
";X c #CC6780",
":X c #D76887",
">X c #C97784",
",X c #D6768A",
"<X c #E26A8D",
"1X c #E87993",
"2X c #ED7896",
"3X c #C660AC",
"4X c #9A9792",
"5X c #B39188",
"6X c #B79A88",
"7X c #BDA48B",
"8X c #B4AB98",
"9X c #9FADA5",
"0X c #AFB4B0",
"qX c #C78989",
"wX c #D48D91",
"eX c #DD8B95",
"rX c #E9889A",
"tX c #F7869D",
"yX c #E8949E",
"uX c #C6AA94",
"iX c #CCAF96",
"pX c #FB8DA1",
"aX c #ED97A2",
"sX c #FC93A5",
"dX c #F79AA7",
"fX c #C9B8A5",
"gX c #D4BBA4",
"hX c #C5B8B0",
"jX c #FAA3AD",
"kX c #FCA7B0",
"lX c #B8C2B4",
"zX c #D9C5AA",
"xX c #CBC6BC",
"cX c #D8C9B6",
"vX c #E2CCB4",
"bX c #E4D4BA",
"nX c #A6BAC5",
"mX c #B8CAD2",
"MX c #D4D1C8",
"NX c #C6D6DC",
"BX c #E8DAC5",
"VX c #E7DDCD",
"CX c #E8E4D9",
"ZX c #F3EADA",
"AX c #F5EBD8",
"SX c #C8DAE2",
"DX c #D2DFE4",
"FX c #D7E1E4",
"GX c #EAEAE5",
"HX c #EEF0EB",
"JX c #FAF4E4",
"KX c #F6F3EA",
"LX c #FEFAEC",
"PX c #F5F6F4",
"IX c #FDFCF4",
"UX c #FFFEFA",
/* pixels */
"        o # % % % % # # % O o o o .                                                               % < 3 f f < X             # > > 3 < # X             = 7 e e ; &                 % 2 7 ; = + .                                     X o o X                     ",
"      2 f N B B B B B B B n n c c f 3 < % % $ # o               . O * * @ . .               X # < N i.k.~.J.C < % .   % 2 2 f B B i.w.c 4 2 . + - 7 7 I >.qXqX-.J 7 .           * G =.>.-.[ H e 7 @                   X X X # < 3 3 d h f 2                     ",
"    . B J.+X+X X X+X+X.X X X}.}.}.~.c.i.C V l h f <       o * 8 G K R P t r G 8 2 O       > d c C `..X.X}.J.i.K K 8   v X.L.R ;.;.;.T.b.j.V 7 y *.5XI.qXaXkXjXjXeXO.q           7 >.yXdXrX1XeX-.| t .           X $ 3 3 3 3 h i.k.c.n.!.x.M *                   ",
"      Y `.@X+XD.].+X@X@X+X|.|.+X[.~.Q.~.[.!.C.Z.b.M %   2 G Q 9XMXVXCXhXI.6XMX0XL.G 7 @ . B J.`.}.+X|.R.G.=.6XzXfXR   R fXcXuXqX>X,XT.~.(.k.[ >.jXkXkXjXdXjXjXdXdX,X) = .     . 7 >.1X,X&.1.1X,X;.D * % < 3 4 4 f N a.a.C b w.n.!.].].{.B.5.p X                 ",
"      B `.+XoX+X{.+X@X+X+X+X+X+XH.T T s.c.b.Z././.p.d 8 m.lXGXPXIXUXKXxX7XcXHXKXZXMX4XG 2 p.+X+X+X}.H.:.>.uXgX6XQ 8   7 K I.iXqX:X:.`.{.~.G./ $.dXkXkXjXdXdXjXjXdX,X+.D r -   . e >XaXyX>X;.,XrX:X[ B C i.c.H.K.'. X Xn.C Y c.!.Z.z.j.l.N.g.g #                 ",
"      f H.|.Q.[.oX+X@XoX{.XX+X XL.O.$XO.O.O.s.b.S.p.U 8XCXIXUXUXUXUXUXPXKXIXIXIXIXIXCX0XQ s. XoX+X~.H.:.5X6X:.} U b 7 r G I #.-.$.G.'.(.K.o./ #.aXjXjXjXdXyXdXdXdX:X<.,X>XH @   ; [ ;.1.1.rXrX;X:X:.R.}. XoX|.[.+X+X'.i.i.J.'.{.x.j.S.S.N.e.g $                 ",
"      - a.}.~.j./.~.[.Q.Q.|.+X}.L.$X*X*X$XO.L.b.j.d.0XGXUXUXUXUXUXUXUXUXUXIXIXIXIXIXLXHXMXL.H.oX|.S.k.X.-.>X>X6XfXfXX.4XhXfX5X1.#.G.'.Z.a.o./  .;.eXeXeXrX,XrXtX<X-X1XrXwX-.7 . 7 -.rXrX,XrX1X$.&.T.R.}.'.~. X XXX{.p.B w.x.S./.n.Z.S.z.f.5.l :                 ",
"      @ 9.~. Xn.r.g.j.Q.{.oXoX[.d.*.%X*X$XE Q J.c.0XGXUXUXUXUXUXUXUXUXUXIXIXIXIXIXIXLXLXJXxXT..XoX|.Q.G.:.wXgXzXgX5XL ..6XgXgX:.#.K.(.z.q.( / $.1.rXrX>X$.%.,.-X-X<.rXeX#.[ q . ; { ;X<.1.,X1.1.| H.J.~.[.~.j.Q.[.l.N n N B U Y Y Y i.U T U f *                 ",
"      - x l.{.{.!./.{.(.B.z.S.(.j.c.L.*.O.P i.F.9XGXUXUXUXUXUXUXUXPXGXCXFXCXCXGXPXIXLXLXLXZX8XR.oXoXJ.G.>.qXuX:.} K 8 7 v ..:.#.X.~.).z.x m /  .>.yXsX:X] D ] @.@.;.rX,X .! 5 . + t ;.,X;.#.-.L.R.J.'.J.Q.|.'.|.l.T O.O.*.I.5X&X8X=.5XI.5X8X8 O                 ",
"      2 l 5.e.h.l.8.q.q.z g x 0.5.0.j.b.k.j.l._.VXPXUXUXUXUXUXUXGXmXmXNXNXmX0X9XxXGXLXLXLXJXcXE. X'.Q.k.I.eX,X;.5X5XI R L.:.1.&.=.~./.S.g.Z / / $.rXrX-X{ t H [ ;.#.;.,./ ! 7 & @ r -.U.L.H.J.b.(.H.`.^.Z.~.+X'.9.*.6X7X6XgXcXY.vX6XgX8X6X8XG O                 ",
"      . 1 p i z 3.u 3 1 : # > a 8.e.x.k.g.l.F.0XKXIXIXUXUXUXUXPXNXDXPXUXHXDXNXmX0X0XCXLXLXJXBX8XR.J.(.S.H.U.qXgXzXqX..=.uXiX5X#.T p.Z./.z.Z ! ^ &.-X-X,.) 7 e { :X;X$.` ^ J I H r n c.J.k.z.S.{.+XH.a.'.~.n.[.l.i.uXzXzXuX7XzXI.7XI.uX6XI.I.G @                 ",
"        X X > g k ,         3 C ~.S.j.u.x./._.xXPXIXIXUXUXUXIXGXDXPXUXUXHXDXSXSXNX9XxXJXLXJXVXzXT.b.^.].n.G.>.U.-.{ v h } -.| L i.Z.(.{.S.q.y w ] ,.,.+.[ J H | $.` ^ ) ;.yXjXyX;.K 8.e.B.|.+X XoXJ.i.J.}.x.j.p.c.uX6XI...L ..t t r v v t t -                   ",
"            X : > #     . 3 C ~.|.{.!.C.A.z.m.MXIXIXIXIXIXIXKXMXGXIXUXKXNXmXmXSXSXmX0XVXLXJXCXzXL.c.n.[.).J.U.>X-X,.} B } +.} 9.z.(.J.a.j.j.m [ +.@.&.,XrX,X,XaXyX,X&.>XyXdXsXsXrX#.B q.[.+XQ.g.l.g.M H.|.Q.p.Q.J.Q G 7 5 - 5 6 6 = & @ @ @                     ",
"                      o f i.J.^.{.~.!.!.S.j.L.VXPXLXLXIXIXIXHXxXGXPXPXNX0XnXmXSXSXmX0XVXLXJXAXzXY.J.j.Q.{.!.J.T.:.;.{ #.-.=.p.r.A.x.c.Y p.c.:.rXyXyXaXdXsXtXyXjXjXdXsXtX1X<X2XpXtX1.L j.{.+X[.n.8.x a p.[.'.k.^.J.N 6 6 S D F ' ' F S 6 .                       ",
"                    % f a.^.[.!.x.z.h.z.j.V Q BXVXfXhXCXIXIXHX0XmXDXDXmXnXnXmXSXSXnX0XCXLXJXBXzXY.J.j.n.{.{./.!.'.R.G.X.T.~.z.0.f.e.l.j.z.R.2.sXjXkXdXsXsXpXtXsXsXsXtX:X;X1XtXtXtX;X[ H.oX+X+XoXZ.8.u h b.[.J.[.Q.U F #X%X*X*X%X*X3X=X' 6                       ",
"                  % c k.(.{.(.S.D./.z.q.M 4 R gX7X5XfXCXIXIXKXMXmXNXSXSXNXNXSXSXNX0XMXZXBXgXzXzXP.H.g.j.x.z.S.{.{.{.'.`.[.S.0.z 6.5.V.D.D.K.1.tXsXsXsXsXsXrX:XtXpXtX1X1.,XtXtX2X1X<X&.E.+XXX].XXXXj.a < q.!.].].~.W #X$X#X#X#X$X%X3X3X$XS                       ",
"              X < N k.Z.!.n.g.z./.x.8.d p % K 6XU.fXMXCXKXIXIXCX0XmXSXSXSXSXNXmXnX0XCXJXBXuX6XfXX.d.l.0.3.5.e.h./.!.{.{.).z.x k 6.5.r.z.D.J.-.:X2XtXpXpXtX<X%.<.:X<X<.1.1XpXsXdXsXtX:XE.oXXX{.XXXXZ.l + 9.S.].D.Q.T F %X=X=X=X=X=X=X=XO.6 . %                   ",
"            X 3 9.S.(.].S.x.V./.x.V 3 # X   r =.5X6X5XhXCXLXIXJXxX0XmXmXmXmXmX9X9XMXJXLXZXfXI.7XK C x.g.0.t.6.8.B.z.Z.Z.Z.l.k g 6.6.3.u.S.Q.X.<.-X-X<X<X-X-X@.) ] @.] +.:XtXpXsXtX2X;XE.{.'.J./.|.!.V & 9.Q.)./.Q.Y $X=X=X=X=X*X%X#XF t 2 r G 7 .               ",
"          $ d q.!.(.Z.Z.Z.z.D.Z.V <       @ H >.U.5XfXCXLXLXLXLXJXcX8X4X4X4X9XfXVXJXLXJXbX6X=.P.r N Q.{.]./.l.x 5.l.g.j.z.e.k g l.A.e.e.B.Z.s.{ -X1X2X1X:X&.) e q e e D @.:X1X2X1X-X+.T.J.s.K a.(.{.9.* C n./.(.n.s.O.#X#X' F S S S t K I =.Y.R 2               ",
"      # < c j.!.x.k.j.l.r.l.Z.u.d % X     & y -.6XzXAXJXLXLXLXLXLXJXAXBXBXBXCXJXLXLXIXZXgXI.=.L 7 p J.[.J.s.Y 8.g 8.x.!.z.3.p h n./.l.5.e.h.p.J ,XdXkXdXtX,X) ; . . . ; D +.%.,.&.%.+.G.T.*.O.W Q.[.i.* c k./.{.S.k.K A q 7 7 r v =.6X5XI.I.=...b >             ",
"      f 9.k.c.Q.b.s.a.g.h.B.j.C B n 2 X   % t } P.fXbXVXJXZXcXcXZXJXLXLXLXLXLXLXIXUXUXJXBXiXP.t - 2 k.c.Q O.W p.p p z.D.l.i $ p x.S.A.l.h.l.c.-.yXdXsXpXtX1X+.5       e { &.#.<.,X,X#.G.G.O.O.m.!.[.i.< 3 p./.)./.Z.U v K R ..L.I.U.uXU.| *.O.W V p $           ",
"    $ 9.b.d.E E W d.Z./.D.V.p.G.*...b ,   r P.cXbXfXzXbXBXcX5XfXVXvXZXLXLXLXLXUXUXUXUXZXcX6XK 7 @ % p.c.Q O.Q k.d > 0.M.e.i   p j.C.D./.A.N.c.-.2XtXtXtXtX<X+.q = - - D 1.yXyX,X;X<.` Z a.c.c.n.].{.p.3 : 9.).).A.A.H.6XiXuX6X:.U.-.-.O.O...s.j.e.g %           ",
"    3 j.b...$X%X$XR b.D.Z.k.Y.wXwX2.L 1 # X.cXZXZXcXuXfXgXuX>.5XwXgXCXJXJXJXZXIXIXIXZXbX6XL - .   $ u.k.i.Y x.z.g $ z 6.5.i   3 j.A./.S.B.B.x.| :X2X2X2X<X,._ _ D I | { ,.:X$. .<.<._ Z u.q.j.Z.{.{.j.f & 9././.A.B.b.E.uXqXI.O.O.$XO.W d.x.B.h.6.k >           ",
"    p j.c.E $X%XO.T z.S.x.T.wXqX>.;...K b L.bXZXCXgX=.=.U.U.I.Y.7XzXbXbXbXbXbXbXBXbXgXY.L -       o C j.r.j.V.B.k $ i 4.4.i   3 p.!.Q.p.U p.x.K @.-X-X<.%.+.$.:X,.eXyX,X%.@.` ^ / ^ w Z j.z.n.(.{.).j.h & C Q.Z.z.r.z.m.*.*.W T Q c.k.x.C.C.A.B.6.z 1           ",
"    1 0.g.T W s.p.g.B.A.n.Y.eX>XW.gXzXzXfXfXbXBXuX..{ { } :.uXiXgXzXvXvXvXzXzXzXiX6XX.v -         X M j.h.z./.z.l > $ u g s   3 w.Z.k.R F T p.B [ &.-X:X:X,X1X<X-X2X,X:X<.` ` ! ~ ! 9 c k.).(.S./.z.8.a % M c.W U 8.g.z.k.c.n.Z.S.S.Z.l.l.v.g.e.6.3.u           ",
"    % 3.e.0.y.u.h.C.C.A.R.qXrX,X-.U.7XuXuXiXzXBXgX:.$.+.) [ ..P.5XuXuXuXuXuX6XI...v 2 @           o c u.C././.h.8.p   % s s   1 9.l.i.P F Y r.i.{ @.$.,XdXrX$. .-X:X .] ` ! w 0 0 9 + f j.)./.b.x.r.5.j > V c.O.E y.5.r.l.l.h.B.B.h.e.4.f.g.5.6.6.3.u           ",
"    o j 5.6.4.3.l.C.A.A.b.I.;X&.{ [ L b r =.gXBXbXuX#._ { { +.$.#.#.-.*.L v r 7 - @               - 9.x.D.D.B.N.l.h   @ 3 1   < 9.l.u.U Y p.h.k.#.@.] :X1X<./ _ ,.&.` ! w 0 9 - = +   3 q.A./.A.g.0.5.z < M j.i.U 5.6.5.3.5.t.M.t.6.6.6.5.4.5.6.6.z ,           ",
"      u z 4.4.4.6.t.h.h.f.s.#.$.{ J b <   v I.fXiX>.y ; ; ; q e e y ;.&.D o X                   o 4 k./.).)././.B.l $   o #   > V B.l.g.q.q.h.c.=.%.+.$.$. .! ^ ` _ w 0 9 9 - .     X p 0.N.D.S.l.8.6.3.d g 5.5.5.6.6.6.6.6.6.6.5.z z z k g g i z z 1           ",
"      # > 1 1 i z 3.3.5.5.8.b m b M p O   * r H K r =         + 5 D +.] y                       % c g.A.D.D./.A.h.3.u .       : k e.h.N.r.e.j.=.>.1.$._ ! ! 0 0 w 0 9 = & +           k r.A.S.A.V.l.h.e.z 3 p k 3.e.6.4.k 3.t.0.a > : $ $ # # $ > p >           ",
"              # : : > u k k 2 2 < > #       . @ @ .           - H -.J 5 &                     . 3 8.l.B.N.N.z.h.6.4.g %       # p z 4.5.5.4.V I %.+.) y 9 9 ; ; ; ; &                 i 0.M.N.h.h.h.h.e.3.< X $ , l x a O h q.8.1                 X             ",
"                      * a i X X                               - H -.J *                         % 3 p a a a p p 1 1 %           $ 3 1 , , , < 7 D ) y ; . . . . . .                   > g z z z k g a u 1 o     X > < $   1 l l :                               ",
"                      # > >                                   . 5 ) D q                           X X X X X X                     . X         . & = & .                                 $ : $ $ # # X X                   # < < X                               "
};
