/* XPM */
static char *b0ef2aaf35244e1b8c0d47101ad11dac[] = {
/* columns rows colors chars-per-pixel */
"32 33 30 1 ",
"  c None",
". c #0C0A07",
"X c #291A18",
"o c #272B2D",
"O c #362623",
"+ c #3A2B28",
"@ c #2E3337",
"# c #2F3437",
"$ c #2F3438",
"% c #4C342F",
"& c #553D39",
"* c #4C403D",
"= c #554C3C",
"- c #373D42",
"; c #383E42",
": c #42494F",
"> c #425059",
", c #4F585E",
"< c #634A45",
"1 c #57636B",
"2 c #6E7D61",
"3 c #803125",
"4 c #86362A",
"5 c #8A382C",
"6 c #B56A68",
"7 c #87947C",
"8 c #C0AC98",
"9 c #D2A394",
"0 c #E4B5A5",
"q c #DBCBBC",
/* pixels */
"::::::::::::::::::::::::::::::::",
"::::::::::::::::::::::::::::::::",
"::::::::::::::::::::::::::::::::",
"::::::::::::::::::::::::::::::::",
":::::::::::::..::.::::::::::::::",
"::::::::;:...%%..%.:::;:::::::::",
"::::::::;.%%%<<%%<%.::::::::::::",
"::::::::;:.<<<<<<<<<.:;:::::::::",
"::::::::;.<<<<<<<<<<%.;:::::::::",
":::::::::.<<<%%<%<<<%%.:::::::::",
"::::::::.%%<<9%<3<<<<.;:::;;;;;:",
":::::::::.%<999<93<<<.;:::::::;;",
"::::::::;.<<9.090.3%<<.;,:::::;$",
"::::::::.&<69X000X46&.;,:::::::;",
":::::::;;.&&9000009&&.:::::::::;",
"::::::;$;:.&&90009&&.:;::::::::;",
":::;;;;;$$;.&.999.&.::;::::;;;;;",
":::,::::;;.+2+888+2+.:;$:;;,::;$",
"::,:::::;,.+2*q53*2+.;$$;,,::;$$",
"::::::::;.++7*qq5*7++.$;;::::;$;",
":;:::::::.*+2*85q*2+*.;;;;;;;;$;",
":;::::::.**.+*q8q*+.**.;,:::::;;",
":;::::::.09.++>>>++.90.,::::::;;",
";$;;;:::;...111>111...;::::::::$",
";;;:::::;;:.11>.>11.::;::::::::$",
":;:::::;$$;.>>.;.>>.:;$$;::::::;",
"::,::::;$;,.OO.:.OO.;;;$$;::::;$",
":,::::::;,:.==.:.==.;;;;;;;;;;$$",
"::::::::#-@@@@@@o@@@o##;::;:::::",
"::::::::;-------#-----::::;:::::",
":::::::;;:::::::;:::::::::;:::::",
";:::::;$;::::::;$:::::::::;:::::",
"                                "
};
