/* XPM */
static char *_6ee6e6f2758457c97f207e73332e3e0[] = {
/* columns rows colors chars-per-pixel */
"32 32 27 1 ",
"  c #0C0A07",
". c #291A18",
"X c #272B2D",
"o c #3A2B28",
"O c #2E3337",
"+ c #2F3437",
"@ c #2F3438",
"# c #4C342F",
"$ c #553D39",
"% c #4C403D",
"& c #373D42",
"* c #383E42",
"= c #42494F",
"- c #425059",
"; c #4F585E",
": c #634A45",
"> c #57636B",
", c #6E7D61",
"< c #803125",
"1 c #86362A",
"2 c #8A382C",
"3 c #B56A68",
"4 c #87947C",
"5 c #C0AC98",
"6 c #D2A394",
"7 c #E4B5A5",
"8 c #DBCBBC",
/* pixels */
"================================",
"================================",
"================================",
"================================",
"================================",
"========*====  == ====*=========",
"========*=   ##  # =============",
"========* ###::##:# ==*=========",
"========*= ::::::::: =*=========",
"========= ::::::::::# *=========",
"========* :::##:#:::## ===*****=",
"======== ##::6#:<:::: *=======**",
"========* #:666:6<::: **;=====*@",
"========* ::6 767 <#:: ;=======*",
"=======* $:36.777.13$ =========*",
"======*@* $$6777776$$ *========*",
"===*****@@ $$67776$$ =*====*****",
"===;====**; $ 666 $ ==*@=**;==*@",
"==;=====*; %,o555o,% *@@*;;==*@@",
"========*; o,%82<%,o @@**====*@*",
"=*======= oo4%882%4oo ********@*",
"=*======= %o,%528%,o% **;=====**",
"=*======* %oo%858%o % *;======**",
"*@***===* 76oo---oo67 *========@",
"***=====**  >>>->>>  =*========@",
"=*=====*@@* >>- ->> =*@@*======*",
"==;====*@*;=   =   =***@@*====*@",
"=;======+=OOOOOOXXXXX++*******@@",
"========*&&&&&&&+&&&++**==*=====",
"========*=======*=========*=====",
"=======**=======*=========*=====",
"*=====*@*======*@=========*====="
};
