/* XPM */
static char *a6f776a2283d428eac776f79edb48bfd[] = {
/* columns rows colors chars-per-pixel */
"32 32 25 1 ",
"  c #0C0A07",
". c #272B2E",
"X c #3A2B28",
"o c #2E3337",
"O c #2F3437",
"+ c #2F3438",
"@ c #4C342F",
"# c #553D39",
"$ c #4C403D",
"% c #373D42",
"& c #383E42",
"* c #42494F",
"= c #425059",
"- c #4F585E",
"; c #634A45",
": c #6E7D61",
"> c #803125",
", c #86362A",
"< c #8A382C",
"1 c #B56A68",
"2 c #87947C",
"3 c #C0AC98",
"4 c #D2A394",
"5 c #E4B5A5",
"6 c #DBCBBC",
/* pixels */
"********************************",
"********************************",
"********************************",
"********************************",
"********************************",
"********&*************&*********",
"********&***********************",
"********&*******&*****&*********",
"********&****  ** ****&*********",
"*********&   @@  @ ***&*********",
"********& @@@;;@@;@ **&***&&&&&*",
"********** ;;;;;;;;; *&*******&&",
"********& ;;;;;;;;;;@ &&-*****&+",
"********& ;;;@@;@;;;@@ -*******&",
"*******& @@;;4@;>;;;; *********&",
"******&+& @;444;4>;;; &********&",
"***&&&&&+ ;;455454>@;; ****&&&&&",
"***-**** #;14 555 ,1# &+*&&-**&+",
"**-*****& ##4555554## ++&--**&++",
"********&- ##45554## ++&&****&+&",
"*&********  # 444 #  &&&&&&&&&+&",
"*&******* $$:X333X:$$ &&-*****&&",
"*&******& $$:$6<>$:$$ &-******&&",
"&+&&&*** $XX2$66<$2XX$ ********+",
"&&&***** X X:$3<6$:X X ********+",
"*&***** XX XX$636$XX XX &******&",
"**-**** 4 - XX===XX & 4 +&****&+",
"*-*****%.&oooooo.......O&&&&&&++",
"********O%%%%%%%O%%%OOO&**&*****",
"********&*******&*********&*****",
"*******&&*******&*********&*****",
"&*****&+&******&+*********&*****"
};
