/* XPM */
static char *_c97d01baf3e48f8ada7259f14d8ca87[] = {
/* columns rows colors chars-per-pixel */
"32 32 16 1 ",
"  c #0C0A07",
". c #272B2E",
"X c #3A2B28",
"o c #2E3337",
"O c #2F3437",
"+ c #2F3438",
"@ c #553D39",
"# c #5D443F",
"$ c #373D42",
"% c #383E42",
"& c #42494F",
"* c #5F4641",
"= c #4F585E",
"- c #634A45",
"; c #674E49",
": c #D2A394",
/* pixels */
"&&&&&&&&&&&&&&&&&&&&&&&&&&&&&&&&",
"&&&&&&&&&&&&&&&&&&&&&&&&&&&&&&&&",
"&&&&&&&&&&&&&&&&&&&&&&&&&&&&&&&&",
"&&&&&&&&&&&&&&&&&&&&&&&&&&&&&&&&",
"&&&&&&&&&&&&&&&&&&&&&&&&&&&&&&&&",
"&&&&&&&&%&&&&&&&&&&&&&%&&&&&&&&&",
"&&&&&&&&%&&&&&&&&&&&&&&&&&&&&&&&",
"&&&&&&&&%&&&&&&&%&&&&&%&&&&&&&&&",
"&&&&&&&&%&&&&&&&&&&&&&%&&&&&&&&&",
"&&&&&&&&&%%%%%%%%&&&&&%&&&&&&&&&",
"&&&&&&&&%&&&&&&%%&&&&&%&&&%%%%%&",
"&&&&&&&&&&&&&&&&%&&&&&%&&&&&&&%%",
"&&&&&&&&%&&&&&&&%&&&&&%%=&&&&&%+",
"&&&&&&&&%&&&&&&&%&&&&&%=&&&&&&&%",
"&&&&&&&%%&&&&&&&%&&&&&&&&&&&&&&%",
"&&&&&&%+%&&&&&&%+&&&&&%&&&&&&&&%",
"&&&%%%%%++%%%%%++&&&&&%&&&&%%%%%",
"&&&=&&&&%%=&&&&&&&&&&&%+&%%=&&%+",
"&&=&&&&&%=&&  &&&&&&&%++%==&&%++",
"&&&&&&&&%=& @@    %&%++%%&&&&%+%",
"&%&&&&&&&&&& @@@@@   %%%%%%%%%+%",
"&%&&&&&&&&& @#####@@@ %%=&&&&&%%",
"&%&&&&&&%  @#;-##;## &%=&&&&&&%%",
"%+%%%&&& ;*-***--*-## %&&&&&&&&+",
"%%%&&&&&% ;********-# %&&&&&&&&+",
"&%&&&&   ;**;***;;**-    &&&&&&%",
"&&=&& :XX**---***;-**-XX: &&&&%+",
"&=&&&$oo.%oooooo.........O%%%%++",
"&&&&&&$$O$$$$$$$O$$$OOOO$&%&&&&&",
"&&&&&&&&%&&&&&&&%&&&&&&&&&%&&&&&",
"&&&&&&&%%&&&&&&&%&&&&&&&&&%&&&&&",
"%&&&&&%+%&&&&&&%+&&&&&&&&&%&&&&&"
};
